<svg width="302" height="200" viewBox="0 0 302 200" fill="none" xmlns="http://www.w3.org/2000/svg">
    <defs>
        <linearGradient id="paint0_linear_750_2590" x1="135.641" y1="157.939" x2="115.516" y2="166.397"
            gradientUnits="userSpaceOnUse">
            <stop stop-color="#40447E" />
            <stop offset="1" stop-color="#3C3B6B" />
        </linearGradient>
        <linearGradient id="paint1_linear_750_2590" x1="189846" y1="88744.6" x2="156068" y2="108086"
            gradientUnits="userSpaceOnUse">
            <stop stop-color="#40447E" />
            <stop offset="1" stop-color="#3C3B6B" />
        </linearGradient>
        <linearGradient id="paint2_linear_750_2590" x1="25513.9" y1="95102.7" x2="378854" y2="95102.7"
            gradientUnits="userSpaceOnUse">
            <stop stop-color="#40447E" />
            <stop offset="1" stop-color="#3C3B6B" />
        </linearGradient>
        <linearGradient id="paint3_linear_750_2590" x1="183.921" y1="-26.4982" x2="19.5278" y2="203.367"
            gradientUnits="userSpaceOnUse">
            <stop stop-color="#FFC444" />
            <stop offset="1" stop-color="#F36F56" />
        </linearGradient>
        <linearGradient id="paint4_linear_750_2590" x1="36106" y1="38049" x2="743971" y2="38049"
            gradientUnits="userSpaceOnUse">
            <stop stop-color="#40447E" />
            <stop offset="1" stop-color="#3C3B6B" />
        </linearGradient>
        <linearGradient id="paint5_linear_750_2590" x1="111.182" y1="70.7882" x2="144.193" y2="70.7882"
            gradientUnits="userSpaceOnUse">
            <stop stop-color="#FF9085" />
            <stop offset="1" stop-color="#FB6FBB" />
        </linearGradient>
        <linearGradient id="paint6_linear_750_2590" x1="77350" y1="24932.8" x2="457368" y2="24932.8"
            gradientUnits="userSpaceOnUse">
            <stop stop-color="#40447E" />
            <stop offset="1" stop-color="#3C3B6B" />
        </linearGradient>
        <linearGradient id="paint7_linear_750_2590" x1="81.2399" y1="52.1479" x2="-10.5965" y2="114.564"
            gradientUnits="userSpaceOnUse">
            <stop stop-color="#311944" />
            <stop offset="1" stop-color="#6B3976" />
        </linearGradient>
        <linearGradient id="paint8_linear_750_2590" x1="61.7615" y1="229.046" x2="101.425" y2="47.8317"
            gradientUnits="userSpaceOnUse">
            <stop stop-color="#E38DDD" />
            <stop offset="1" stop-color="#9571F6" />
        </linearGradient>
        <linearGradient id="paint9_linear_750_2590" x1="-22730.8" y1="12795.9" x2="-21410.9" y2="12795.9"
            gradientUnits="userSpaceOnUse">
            <stop stop-color="#311944" />
            <stop offset="1" stop-color="#6B3976" />
        </linearGradient>
        <linearGradient id="paint10_linear_750_2590" x1="13759.6" y1="14104.1" x2="12451.7" y2="10299.6"
            gradientUnits="userSpaceOnUse">
            <stop stop-color="#FFC444" />
            <stop offset="1" stop-color="#F36F56" />
        </linearGradient>
        <linearGradient id="paint11_linear_750_2590" x1="-13719.6" y1="14932.5" x2="-13226.2" y2="14932.5"
            gradientUnits="userSpaceOnUse">
            <stop stop-color="#311944" />
            <stop offset="1" stop-color="#6B3976" />
        </linearGradient>
        <linearGradient id="paint12_linear_750_2590" x1="9022.57" y1="16185.8" x2="7477.57" y2="13788.1"
            gradientUnits="userSpaceOnUse">
            <stop stop-color="#FFC444" />
            <stop offset="1" stop-color="#F36F56" />
        </linearGradient>
        <linearGradient id="paint13_linear_750_2590" x1="109.061" y1="131.926" x2="99.8567" y2="185.175"
            gradientUnits="userSpaceOnUse">
            <stop stop-color="#AB316D" />
            <stop offset="1" stop-color="#792D3D" />
        </linearGradient>
        <linearGradient id="paint14_linear_750_2590" x1="-110272" y1="121381" x2="-101733" y2="95899.7"
            gradientUnits="userSpaceOnUse">
            <stop stop-color="#AB316D" />
            <stop offset="1" stop-color="#792D3D" />
        </linearGradient>
        <linearGradient id="paint15_linear_750_2590" x1="-105114" y1="58772.9" x2="-102849" y2="45448.6"
            gradientUnits="userSpaceOnUse">
            <stop stop-color="#AB316D" />
            <stop offset="1" stop-color="#792D3D" />
        </linearGradient>
        <linearGradient id="paint16_linear_750_2590" x1="-88404.4" y1="26764.9" x2="-87603.6" y2="38226"
            gradientUnits="userSpaceOnUse">
            <stop stop-color="#AB316D" />
            <stop offset="1" stop-color="#792D3D" />
        </linearGradient>
        <linearGradient id="paint17_linear_750_2590" x1="15457.8" y1="92665.6" x2="32879.1" y2="18359.8"
            gradientUnits="userSpaceOnUse">
            <stop stop-color="#E38DDD" />
            <stop offset="1" stop-color="#9571F6" />
        </linearGradient>
        <linearGradient id="paint18_linear_750_2590" x1="42744.2" y1="15579.5" x2="43378.4" y2="12583.4"
            gradientUnits="userSpaceOnUse">
            <stop stop-color="#FFC444" />
            <stop offset="1" stop-color="#F36F56" />
        </linearGradient>
        <linearGradient id="paint19_linear_750_2590" x1="21552.1" y1="7587.1" x2="21005.3" y2="10383.5"
            gradientUnits="userSpaceOnUse">
            <stop stop-color="#FFC444" />
            <stop offset="1" stop-color="#F36F56" />
        </linearGradient>
        <linearGradient id="paint20_linear_750_2590" x1="3244.03" y1="5884.68" x2="-7742.41" y2="5884.68"
            gradientUnits="userSpaceOnUse">
            <stop stop-color="#40447E" />
            <stop offset="1" stop-color="#3C3B6B" />
        </linearGradient>
        <linearGradient id="paint21_linear_750_2590" x1="14065.2" y1="20280.8" x2="10571" y2="27786.1"
            gradientUnits="userSpaceOnUse">
            <stop stop-color="#40447E" />
            <stop offset="1" stop-color="#3C3B6B" />
        </linearGradient>
        <linearGradient id="paint22_linear_750_2590" x1="11116.6" y1="19711.8" x2="7290.32" y2="26395.6"
            gradientUnits="userSpaceOnUse">
            <stop stop-color="#40447E" />
            <stop offset="1" stop-color="#3C3B6B" />
        </linearGradient>
        <linearGradient id="paint23_linear_750_2590" x1="7060.3" y1="82240" x2="24527.3" y2="16102.7"
            gradientUnits="userSpaceOnUse">
            <stop stop-color="#E38DDD" />
            <stop offset="1" stop-color="#9571F6" />
        </linearGradient>
        <linearGradient id="paint24_linear_750_2590" x1="7306.98" y1="5578.97" x2="6882.29" y2="6468.09"
            gradientUnits="userSpaceOnUse">
            <stop stop-color="#FFC444" />
            <stop offset="1" stop-color="#F36F56" />
        </linearGradient>
    </defs>
    <path
        d="M301.145 146.93L14.614 144.437V151.816C14.614 153.819 15.8643 155.526 17.5565 155.826L98.5807 170.357C99.5394 170.53 100.517 170.576 101.487 170.494L298.035 153.926C299.79 153.778 301.149 152.071 301.149 150.011L301.145 146.93Z"
        fill="url(#paint0_linear_750_2590)" />
    <path
        d="M208.905 134.968L17.763 148.469C14.3426 148.71 11.5625 146.143 11.5625 142.734V6.17248C11.5665 4.53245 12.2218 2.96109 13.3845 1.80369C14.5471 0.64629 16.122 -0.00245578 17.763 6.98631e-06H208.905C211.723 6.98631e-06 214.001 2.49798 214.001 5.579V129.029C214.001 132.111 211.723 134.77 208.905 134.968Z"
        fill="url(#paint1_linear_750_2590)" />
    <path
        d="M211.953 134.968L20.811 148.469C17.3907 148.71 14.6094 146.143 14.6094 142.734V6.17248C14.6137 4.53234 15.2693 2.96098 16.4321 1.80362C17.5949 0.646252 19.1699 -0.00245625 20.811 6.9894e-06H211.953C214.771 6.9894e-06 217.049 2.49798 217.049 5.579V129.029C217.049 132.111 214.771 134.77 211.953 134.968Z"
        fill="url(#paint2_linear_750_2590)" />
    <path
        d="M205.998 126.265L27.9695 137.991C25.1859 138.174 22.9242 136.068 22.9242 133.285V13.7243C22.9263 12.3861 23.458 11.103 24.4032 10.1551C25.3485 9.20717 26.6305 8.67138 27.9695 8.66465L205.998 7.92859C208.318 7.91932 210.204 9.96638 210.204 12.5003V121.399C210.204 123.933 208.322 126.116 205.998 126.265Z"
        fill="url(#paint3_linear_750_2590)" />
    <path
        d="M207.184 134.356L14.614 148.566L98.5761 163.626C99.5348 163.798 100.512 163.843 101.483 163.761L301.145 146.93L210.247 134.453C209.232 134.313 208.205 134.281 207.184 134.356V134.356Z"
        fill="url(#paint4_linear_750_2590)" />
    <path
        d="M127.687 102.739C144.719 102.739 158.526 88.7637 158.526 71.5242C158.526 54.2848 144.719 40.3094 127.687 40.3094C110.655 40.3094 96.8479 54.2848 96.8479 71.5242C96.8479 88.7637 110.655 102.739 127.687 102.739Z"
        fill="white" />
    <path
        d="M126.601 88.3435C125.94 88.3425 125.291 88.1695 124.717 87.8414C124.144 87.5134 123.665 87.0416 123.329 86.4726L111.731 66.9259C111.209 66.0476 111.053 64.9993 111.298 64.0073C111.542 63.0153 112.167 62.1593 113.038 61.6239C113.467 61.3633 113.944 61.1906 114.441 61.1158C114.938 61.041 115.444 61.0656 115.931 61.1882C116.418 61.3109 116.876 61.5291 117.278 61.8301C117.68 62.1312 118.018 62.5091 118.272 62.9419L126.325 76.5109L136.977 55.3448C137.201 54.8945 137.511 54.493 137.891 54.1637C138.271 53.8344 138.713 53.5838 139.19 53.4266C139.668 53.2693 140.172 53.2085 140.673 53.2477C141.175 53.2869 141.663 53.4253 142.111 53.6548C143.016 54.1281 143.699 54.9385 144.012 55.9109C144.324 56.8832 144.241 57.9394 143.781 58.8512L130.003 86.2327C129.698 86.8448 129.233 87.3635 128.659 87.7345C128.084 88.1055 127.42 88.315 126.736 88.3412L126.601 88.3435Z"
        fill="url(#paint5_linear_750_2590)" />
    <path style="mix-blend-mode:multiply" opacity="0.3"
        d="M42.7089 148.923L203.033 136.917L252.652 143.673L93.7094 156.507L42.7089 148.923Z"
        fill="url(#paint6_linear_750_2590)" />
    <g style="mix-blend-mode:soft-light" opacity="0.48">
        <path
            d="M165.9 97.5136C151.17 89.5908 139.579 99.6302 128.397 89.7241C121.619 83.7185 124.946 79.2407 116.605 70.2654C107.366 60.3245 101.352 63.6664 92.0659 54.72C80.326 43.4079 86.1982 34.6064 76.0856 26.4843C63.8168 16.6315 50.5865 25.7517 38.9081 16.3023C33.8674 12.2267 31.1081 6.30114 29.6653 0H18.2385C17.2775 0.000920681 16.3562 0.382855 15.6766 1.06198C14.9971 1.7411 14.615 2.66192 14.614 3.62235V145.181C14.6082 145.647 14.7001 146.109 14.884 146.538C15.0679 146.966 15.3396 147.351 15.6816 147.668C16.0236 147.984 16.4283 148.226 16.8695 148.377C17.3107 148.527 17.7787 148.584 18.2432 148.543L213.048 134.723C214.003 134.656 214.851 134.099 215.395 133.29C201.129 132.77 192.375 127.992 186.774 123.053C175.815 113.395 177.714 103.867 165.9 97.5136Z"
            fill="white" />
    </g>
    <path
        d="M76.1923 85.3216C77.9205 84.2018 76.3465 80.9435 76.2526 73.9468C76.1366 65.3691 78.418 63.7741 76.5878 60.4091C74.3458 56.2953 68.716 54.596 64.9824 54.5137C64.1601 54.4951 63.9676 54.05 57.07 55.8316C44.6446 59.0471 41.5339 55.5998 35.9702 59.0436C30.5943 62.3704 32.9476 66.0148 27.7272 69.9176C19.2603 76.242 10.3667 69.4041 4.31926 74.6945C-1.40108 79.6997 -1.5333 92.4492 4.48395 99.4076C11.305 107.29 23.6051 104.925 31.8481 103.361C33.5878 103.032 42.3435 101.194 51.4656 94.465C55.5333 91.4604 59.1426 87.881 62.1802 83.839C62.6975 83.2595 63.5048 82.5512 64.5707 82.4388C65.8465 82.302 66.8776 83.0833 67.3729 83.4264C69.9744 85.2265 74.4954 86.4216 76.1923 85.3216Z"
        fill="url(#paint7_linear_750_2590)" />
    <path
        d="M69.2483 80.6224C71.4705 78.5985 79.4004 82.4979 84.6556 87.6735C90.8306 93.7544 90.3562 98.6854 95.7437 106.238C98.4229 109.994 103.015 115.048 111.152 119.478C110.575 120.918 109.999 122.357 109.424 123.796C105.49 124.028 97.7653 123.894 90.5604 119.191C85.5545 115.924 82.9785 111.596 78.0341 103.079C73.07 94.5183 66.4705 83.1517 69.2483 80.6224Z"
        fill="url(#paint8_linear_750_2590)" />
    <path
        d="M119.334 196.274L113.144 192.557H110.35C110.35 192.557 109.399 196.098 109.506 196.274C110.751 198.313 116.547 199.868 120.163 199.993C120.764 200.014 121.601 200.017 121.818 199.581C122.185 198.845 120.547 197.3 119.334 196.274Z"
        fill="url(#paint9_linear_750_2590)" />
    <path
        d="M113.033 188.501C112.636 190.802 113.139 192.002 113.682 192.674C114.063 193.147 114.403 193.281 116.67 195.239C117.419 195.887 117.8 196.234 117.713 196.416C117.615 196.623 116.954 196.511 115.525 196.168C112.412 195.419 110.848 195.031 110.466 194.282C110.118 193.604 110.426 193.298 110.406 191.451C110.394 190.498 110.241 189.552 109.951 188.644L113.033 188.501Z"
        fill="url(#paint10_linear_750_2590)" />
    <path
        d="M117.509 170.262C117.509 170.262 120.306 173.597 119.851 177.253C119.396 180.909 114.497 175.564 113.82 173.757C113.143 171.95 112.339 169.376 112.339 169.376C112.339 169.376 115.768 167.241 117.509 170.262Z"
        fill="url(#paint11_linear_750_2590)" />
    <path
        d="M116.448 165.043C116.448 165.043 115.69 168.929 117.136 170.979C117.857 172.001 118.829 172.866 118.544 173.699C118.351 174.255 117.624 174.656 117.008 174.592C115.829 174.476 115.175 172.664 114.713 171.389C114.032 169.506 113.652 165.477 113.652 165.477L116.448 165.043Z"
        fill="url(#paint12_linear_750_2590)" />
    <path
        d="M114.213 168.318L116.796 167.381C118.138 164.318 119.776 159.287 119.232 153.172C117.825 137.446 103.271 129.113 101.654 128.221C97.6899 130.21 93.6734 133.015 93.5284 136.55C93.3452 140.989 99.396 143.336 105.084 149.826C108.492 153.72 112.14 159.526 114.213 168.318Z"
        fill="url(#paint13_linear_750_2590)" />
    <path
        d="M113.286 190.299C116.128 179.205 115.402 170.151 114.582 164.934C113.343 157.052 110.823 141.016 100.11 135.036C97.7711 133.731 94.4273 132.562 90.3504 128.932C87.6263 126.493 85.3068 123.637 83.4784 120.471C69.152 116.263 55.9379 117.968 50.1051 125.652C49.4312 126.54 47.7448 128.464 47.4189 131.303C46.6824 137.705 52.9769 145.414 60.0415 147.023C69.0186 149.069 74.2275 139.857 82.1805 142.922C84.4062 143.78 86.2921 145.905 90.0674 150.154C93.4141 153.909 96.2762 158.07 98.5865 162.537C101.625 168.481 103.931 172.869 104.27 178.556C104.349 179.879 104.395 182.556 105.948 185.442C107.139 187.658 108.755 189.135 109.956 190.049L113.286 190.299Z"
        fill="url(#paint14_linear_750_2590)" />
    <path style="mix-blend-mode:multiply" opacity="0.3"
        d="M47.4201 131.297C47.746 128.458 49.4324 126.534 50.1063 125.646C55.938 117.968 69.1521 116.265 83.4784 120.466C85.3069 123.632 87.6264 126.488 90.3505 128.928C94.4261 132.557 97.7735 133.727 100.111 135.032C106.651 138.683 110.135 146.083 112.14 153.088C109.165 148.477 106.617 147.25 104.647 147.23C101.825 147.197 100.564 149.609 97.1935 149.28C93.598 148.932 92.7699 145.952 89.8506 145.61C88.9761 145.508 87.9009 145.643 86.61 146.329C84.8865 144.526 83.6025 143.459 82.1817 142.912C74.2287 139.847 69.0198 149.055 60.0427 147.013C52.9781 145.409 46.6836 137.699 47.4201 131.297Z"
        fill="url(#paint15_linear_750_2590)" />
    <path
        d="M105.863 140C103.486 139.873 101.102 139.927 98.7327 140.161C84.4376 141.573 80.4965 148.639 68.6823 150.362C65.8883 150.77 53.4443 152.586 48.0546 145.397C44.19 140.238 44.7699 131.343 49.0033 127.846C50.7941 126.365 52.5675 126.407 64.0383 126.51C68.3587 126.549 72.678 126.563 76.9984 126.619C95.2845 126.851 98.7814 125.586 102.109 128.608C103.661 130.018 105.931 133.047 105.863 140Z"
        fill="url(#paint16_linear_750_2590)" />
    <path
        d="M67.2592 81.3631C67.2592 81.3631 45.9181 75.1443 43.7074 90.7522C41.5861 105.716 52.455 112.583 47.5094 127.74C46.9364 129.497 88.1282 121.449 88.1282 121.449C82.6294 114.592 81.3524 108.937 81.2202 105.004C81.0764 100.693 82.3197 98.733 81.2202 93.6362C81.2202 93.6362 79.9942 87.9494 75.5683 83.0671C74.9327 82.3704 74.1753 81.6401 67.2592 81.3631Z"
        fill="url(#paint17_linear_750_2590)" />
    <path
        d="M62.6244 72.0065C62.8204 72.9199 63.8156 77.8173 61.8125 79.0773C61.3776 79.3509 60.5425 79.5073 58.8723 79.8203C57.7786 80.0243 56.8612 80.1507 56.214 80.2283C56.3079 81.049 56.5851 82.3855 57.5327 83.6015C60.1911 87.0105 65.5217 86.1284 66.2814 85.9893C68.963 85.5025 71.6016 84.6737 72.2383 84.1683C73.2091 83.3974 73.9711 82.819 74.4223 82.2325C73.3854 81.7306 71.2908 80.4092 69.885 79.9768C68.9215 79.6812 67.9417 79.4412 66.9506 79.2581L66.5087 76.4194L62.6244 72.0065Z"
        fill="url(#paint18_linear_750_2590)" />
    <path
        d="M62.5306 74.4476C62.5306 74.4476 62.8936 78.041 66.3848 78.6693C69.5105 79.2361 71.8627 71.6865 70.2633 69.7345C69.7297 69.0831 68.4075 68.4594 67.2709 68.4965C66.4671 68.5197 63.7542 69.5514 63.3761 72.2649C62.8356 71.6958 62.1629 71.5324 61.8301 71.7711C61.409 72.0725 61.6352 72.9512 61.6862 73.1505C61.8252 73.6604 62.1205 74.114 62.5306 74.4476V74.4476Z"
        fill="url(#paint19_linear_750_2590)" />
    <path
        d="M92.4777 123.206L59.8188 124.794C59.5974 124.805 59.382 124.869 59.1909 124.981C58.9998 125.094 58.8388 125.251 58.7216 125.439L57.8181 126.889C57.7152 127.052 57.659 127.241 57.6555 127.434C57.6519 127.627 57.7012 127.817 57.7981 127.984C57.8949 128.151 58.0356 128.289 58.2049 128.381C58.3742 128.474 58.5657 128.519 58.7587 128.512L93.3522 127.195L92.4777 123.206Z"
        fill="url(#paint20_linear_750_2590)" />
    <path
        d="M126.446 105.031L92.7049 105.683C92.2143 105.693 91.7347 105.83 91.313 106.081C90.8913 106.331 90.542 106.687 90.2994 107.114L78.6152 127.658L114.25 126.24C114.732 126.221 115.201 126.082 115.615 125.836C116.029 125.591 116.376 125.246 116.623 124.832L127.448 106.758C127.552 106.583 127.608 106.383 127.61 106.18C127.611 105.976 127.558 105.776 127.456 105.599C127.353 105.423 127.206 105.278 127.028 105.178C126.851 105.078 126.65 105.027 126.446 105.031V105.031Z"
        fill="url(#paint21_linear_750_2590)" />
    <path style="mix-blend-mode:multiply" opacity="0.3"
        d="M90.2994 107.115C90.5418 106.688 90.891 106.332 91.3127 106.081C91.7344 105.83 92.2142 105.693 92.7049 105.683L93.4449 105.669C93.5609 106.758 93.8891 107.756 94.556 108.558C96.6356 111.068 100.093 109.519 102.675 112.176C105.505 115.093 102.891 118.566 105.42 121.282C108.088 124.139 112.391 121.813 117.341 123.642L116.629 124.832C116.382 125.246 116.035 125.591 115.621 125.836C115.206 126.082 114.737 126.221 114.256 126.24L78.621 127.658L90.2994 107.115Z"
        fill="url(#paint22_linear_750_2590)" />
    <path
        d="M62.4795 122.115L63.7554 118.754C59.0568 117.466 52.5594 115.564 45.8938 113.184C44.8499 112.811 43.6101 112.35 43.2041 111.252C42.064 108.173 49.3095 104.982 52.1256 98.2589C54.7306 92.04 53.2959 83.4113 50.2699 82.3913C43.9801 80.27 21.6729 108.02 29.6398 119.716C34.1481 126.328 48.0326 127.38 62.4795 122.115Z"
        fill="url(#paint23_linear_750_2590)" />
    <path
        d="M63.7553 118.75C66.7048 117.184 70.2353 118.789 70.4627 118.896C71.4128 119.348 72.2745 119.965 73.0074 120.72C73.1141 120.867 74.3992 122.638 73.9283 123.206C73.5548 123.661 72.1073 123.284 70.3687 122.203C69.3371 122.058 68.2921 122.033 67.2545 122.127C64.8676 122.347 63.775 123.101 62.9075 122.45C62.273 121.974 62.0561 120.967 62.2846 120.218C62.5305 119.415 63.2554 119.015 63.7553 118.75Z"
        fill="url(#paint24_linear_750_2590)" />
</svg>