<svg width="276" height="259" viewBox="0 0 276 259" fill="none" xmlns="http://www.w3.org/2000/svg"
    xmlns:xlink="http://www.w3.org/1999/xlink">
    <defs>
        <pattern id="pattern0" patternContentUnits="objectBoundingBox" width="1" height="1">
            <use xlink:href="#image0_750_2621" transform="scale(0.000777605 0.00116686)" />
        </pattern>
        <linearGradient id="paint0_linear_750_2621" x1="91.9792" y1="204.91" x2="202.132" y2="14.1337"
            gradientUnits="userSpaceOnUse">
            <stop offset="0.01" stop-color="#4E26B0" />
            <stop offset="0.53" stop-color="#CF26B0" />
            <stop offset="1" stop-color="#EBC32B" />
        </linearGradient>
        <linearGradient id="paint1_linear_750_2621" x1="17247.3" y1="48267.2" x2="37374.9" y2="13405.6"
            gradientUnits="userSpaceOnUse">
            <stop offset="0.01" stop-color="#4E26B0" />
            <stop offset="0.53" stop-color="#CF26B0" />
            <stop offset="1" stop-color="#EBC32B" />
        </linearGradient>
        <linearGradient id="paint2_linear_750_2621" x1="3332.5" y1="22029.2" x2="16596.6" y2="-944.466"
            gradientUnits="userSpaceOnUse">
            <stop offset="0.01" stop-color="#4E26B0" />
            <stop offset="0.53" stop-color="#CF26B0" />
            <stop offset="1" stop-color="#EBC32B" />
        </linearGradient>
        <linearGradient id="paint3_linear_750_2621" x1="27.8598" y1="187.161" x2="269.409" y2="187.161"
            gradientUnits="userSpaceOnUse">
            <stop stop-color="white" stop-opacity="0.4" />
            <stop offset="0.19" stop-color="white" stop-opacity="0.41" />
            <stop offset="0.35" stop-color="white" stop-opacity="0.46" />
            <stop offset="0.5" stop-color="white" stop-opacity="0.53" />
            <stop offset="0.65" stop-color="white" stop-opacity="0.62" />
            <stop offset="0.79" stop-color="white" stop-opacity="0.75" />
            <stop offset="0.93" stop-color="white" stop-opacity="0.91" />
            <stop offset="1" stop-color="white" />
        </linearGradient>
        <linearGradient id="paint4_linear_750_2621" x1="27.853" y1="214.968" x2="269.416" y2="214.968"
            gradientUnits="userSpaceOnUse">
            <stop stop-color="white" />
            <stop offset="1" stop-color="white" stop-opacity="0.4" />
        </linearGradient>
        <linearGradient id="paint5_linear_750_2621" x1="0" y1="17229" x2="87315.2" y2="17229"
            gradientUnits="userSpaceOnUse">
            <stop stop-color="white" />
            <stop offset="1" stop-color="white" stop-opacity="0.4" />
        </linearGradient>
        <linearGradient id="paint6_linear_750_2621" x1="2.42802" y1="21519.1" x2="87313.4" y2="21519.1"
            gradientUnits="userSpaceOnUse">
            <stop stop-color="white" stop-opacity="0.4" />
            <stop offset="0.19" stop-color="white" stop-opacity="0.41" />
            <stop offset="0.35" stop-color="white" stop-opacity="0.46" />
            <stop offset="0.5" stop-color="white" stop-opacity="0.53" />
            <stop offset="0.65" stop-color="white" stop-opacity="0.62" />
            <stop offset="0.79" stop-color="white" stop-opacity="0.75" />
            <stop offset="0.93" stop-color="white" stop-opacity="0.91" />
            <stop offset="1" stop-color="white" />
        </linearGradient>
        <linearGradient id="paint7_linear_750_2621" x1="91.291" y1="55.3643" x2="99.8851" y2="40.4887"
            gradientUnits="userSpaceOnUse">
            <stop stop-color="#D7A866" />
            <stop offset="1" stop-color="#E7B19E" />
        </linearGradient>
        <linearGradient id="paint8_linear_750_2621" x1="1401.52" y1="374.693" x2="1415.55" y2="290.75"
            gradientUnits="userSpaceOnUse">
            <stop stop-color="#D7A866" />
            <stop offset="1" stop-color="#E7B19E" />
        </linearGradient>
        <linearGradient id="paint9_linear_750_2621" x1="2053.35" y1="684.699" x2="2088.55" y2="518.873"
            gradientUnits="userSpaceOnUse">
            <stop stop-color="#D7A866" />
            <stop offset="1" stop-color="#E7B19E" />
        </linearGradient>
        <linearGradient id="paint10_linear_750_2621" x1="2527.94" y1="1186.18" x2="2598.81" y2="974.017"
            gradientUnits="userSpaceOnUse">
            <stop stop-color="#D7A866" />
            <stop offset="1" stop-color="#E7B19E" />
        </linearGradient>
        <linearGradient id="paint11_linear_750_2621" x1="1122.14" y1="472.186" x2="1175.09" y2="328.013"
            gradientUnits="userSpaceOnUse">
            <stop stop-color="#D7A866" />
            <stop offset="1" stop-color="#E7B19E" />
        </linearGradient>
        <linearGradient id="paint12_linear_750_2621" x1="2282.03" y1="1149.14" x2="2367.74" y2="892.873"
            gradientUnits="userSpaceOnUse">
            <stop stop-color="#D7A866" />
            <stop offset="1" stop-color="#E7B19E" />
        </linearGradient>
        <linearGradient id="paint13_linear_750_2621" x1="1478.12" y1="594.814" x2="1531.2" y2="450.522"
            gradientUnits="userSpaceOnUse">
            <stop stop-color="#D7A866" />
            <stop offset="1" stop-color="#E7B19E" />
        </linearGradient>
        <linearGradient id="paint14_linear_750_2621" x1="2425.56" y1="1207.92" x2="2511.28" y2="951.597"
            gradientUnits="userSpaceOnUse">
            <stop stop-color="#D7A866" />
            <stop offset="1" stop-color="#E7B19E" />
        </linearGradient>
        <linearGradient id="paint15_linear_750_2621" x1="2467.89" y1="789.744" x2="2502.83" y2="624.759"
            gradientUnits="userSpaceOnUse">
            <stop stop-color="#D7A866" />
            <stop offset="1" stop-color="#E7B19E" />
        </linearGradient>
        <linearGradient id="paint16_linear_750_2621" x1="2293.35" y1="1176.47" x2="2364.17" y2="964.452"
            gradientUnits="userSpaceOnUse">
            <stop stop-color="#D7A866" />
            <stop offset="1" stop-color="#E7B19E" />
        </linearGradient>
        <linearGradient id="paint17_linear_750_2621" x1="1657.72" y1="443.832" x2="1671.9" y2="359.095"
            gradientUnits="userSpaceOnUse">
            <stop stop-color="#D7A866" />
            <stop offset="1" stop-color="#E7B19E" />
        </linearGradient>
        <linearGradient id="paint18_linear_750_2621" x1="1494.64" y1="527.731" x2="1533.86" y2="396.726"
            gradientUnits="userSpaceOnUse">
            <stop stop-color="#D7A866" />
            <stop offset="1" stop-color="#E7B19E" />
        </linearGradient>
        <linearGradient id="paint19_linear_750_2621" x1="2038.82" y1="1562.77" x2="2088.5" y2="1414.94"
            gradientUnits="userSpaceOnUse">
            <stop stop-color="#D7A866" />
            <stop offset="1" stop-color="#E7B19E" />
        </linearGradient>
        <linearGradient id="paint20_linear_750_2621" x1="1885.02" y1="1485.64" x2="1933.36" y2="1340.78"
            gradientUnits="userSpaceOnUse">
            <stop stop-color="#D7A866" />
            <stop offset="1" stop-color="#E7B19E" />
        </linearGradient>
        <linearGradient id="paint21_linear_750_2621" x1="2547.18" y1="1845.68" x2="2603.57" y2="1676.44"
            gradientUnits="userSpaceOnUse">
            <stop stop-color="#D7A866" />
            <stop offset="1" stop-color="#E7B19E" />
        </linearGradient>
        <linearGradient id="paint22_linear_750_2621" x1="2643.68" y1="2095.29" x2="2698.33" y2="1932.29"
            gradientUnits="userSpaceOnUse">
            <stop stop-color="#D7A866" />
            <stop offset="1" stop-color="#E7B19E" />
        </linearGradient>
        <linearGradient id="paint23_linear_750_2621" x1="1022.45" y1="790.5" x2="1040.2" y2="737.33"
            gradientUnits="userSpaceOnUse">
            <stop stop-color="#D7A866" />
            <stop offset="1" stop-color="#E7B19E" />
        </linearGradient>
        <linearGradient id="paint24_linear_750_2621" x1="2418.21" y1="1836.2" x2="2465.69" y2="1693.96"
            gradientUnits="userSpaceOnUse">
            <stop stop-color="#D7A866" />
            <stop offset="1" stop-color="#E7B19E" />
        </linearGradient>
        <linearGradient id="paint25_linear_750_2621" x1="2554.47" y1="1881.6" x2="2602.04" y2="1739.18"
            gradientUnits="userSpaceOnUse">
            <stop stop-color="#D7A866" />
            <stop offset="1" stop-color="#E7B19E" />
        </linearGradient>
    </defs>
    <path
        d="M252.602 110.564C224.976 123.929 205.243 97.6125 179.374 98.2674C166.316 99.604 155.437 108.833 143.823 114.085C49.8922 147.847 40.971 11.6393 126.782 0.318729C176.741 -3.69091 176.173 31.3333 211.223 37.8556C230.369 39.5797 253.09 31.5605 266.542 49.9981C282.179 69.9995 276.359 100.145 252.602 110.564Z"
        fill="url(#paint0_linear_750_2621)" />
    <path
        d="M198.754 220.16C225.065 220.16 246.394 198.831 246.394 172.519C246.394 146.208 225.065 124.878 198.754 124.878C172.443 124.878 151.114 146.208 151.114 172.519C151.114 198.831 172.443 220.16 198.754 220.16Z"
        fill="url(#paint1_linear_750_2621)" />
    <path
        d="M52.993 205.017C70.3319 205.017 84.3878 190.961 84.3878 173.622C84.3878 156.283 70.3319 142.226 52.993 142.226C35.6541 142.226 21.5981 156.283 21.5981 173.622C21.5981 190.961 35.6541 205.017 52.993 205.017Z"
        fill="url(#paint2_linear_750_2621)" />
    <g style="mix-blend-mode:soft-light">
        <path style="mix-blend-mode:soft-light"
            d="M268.032 205.158L180.116 256.26C179.081 256.788 177.936 257.064 176.775 257.064C175.613 257.064 174.468 256.788 173.433 256.26L29.2564 173.034C27.3987 171.958 27.392 170.22 29.2564 169.158L58.6599 152.057L117.159 118.055C118.195 117.53 119.34 117.257 120.501 117.257C121.662 117.257 122.806 117.53 123.842 118.055L216.65 171.644L268.006 201.295C269.87 202.364 269.877 204.102 268.032 205.158Z"
            fill="url(#paint3_linear_750_2621)" />
    </g>
    <path
        d="M269.416 203.246V205.037C269.377 205.451 269.229 205.847 268.987 206.185C268.745 206.523 268.418 206.791 268.039 206.962L180.109 258.051C179.075 258.579 177.93 258.855 176.768 258.855C175.606 258.855 174.461 258.579 173.427 258.051L29.2564 174.825C28.8685 174.654 28.5337 174.382 28.2868 174.038C28.0399 173.693 27.8901 173.289 27.853 172.867V171.076C27.894 171.496 28.0454 171.898 28.2919 172.24C28.5383 172.583 28.8711 172.855 29.2564 173.027L173.42 256.267C174.456 256.792 175.6 257.065 176.761 257.065C177.922 257.065 179.067 256.792 180.103 256.267L268.039 205.158C268.416 204.988 268.742 204.722 268.984 204.387C269.225 204.051 269.374 203.658 269.416 203.246V203.246Z"
        fill="url(#paint4_linear_750_2621)" />
    <g opacity="0.2">
        <path opacity="0.2"
            d="M186.444 196.985C187.848 197.793 187.861 199.123 186.444 199.938L92.554 145.721C93.3448 145.319 94.2195 145.11 95.1067 145.11C95.9939 145.11 96.8686 145.319 97.6595 145.721L186.444 196.985Z"
            fill="white" />
    </g>
    <g opacity="0.3">
        <path opacity="0.3" d="M186.458 199.932L184.226 201.235L90.322 147.018L92.554 145.721L186.458 199.932Z"
            fill="white" />
    </g>
    <g opacity="0.2">
        <path opacity="0.2" d="M88.0834 148.314L90.322 147.018L184.226 201.235L181.987 202.531L88.0834 148.314Z"
            fill="white" />
    </g>
    <g opacity="0.3">
        <path opacity="0.3" d="M181.987 202.531L179.755 203.828L85.8513 149.611L88.0833 148.314L181.987 202.531Z"
            fill="white" />
    </g>
    <g opacity="0.2">
        <path opacity="0.2" d="M83.6327 150.901L85.8513 149.611L179.755 203.828L177.537 205.117L83.6327 150.901Z"
            fill="white" />
    </g>
    <g opacity="0.3">
        <path opacity="0.3" d="M177.537 205.117L175.305 206.414L81.4075 152.197L83.6328 150.901L177.537 205.117Z"
            fill="white" />
    </g>
    <g opacity="0.2">
        <path opacity="0.2"
            d="M81.3874 152.21L175.311 206.414C174.518 206.816 173.641 207.026 172.752 207.026C171.862 207.026 170.986 206.816 170.192 206.414L81.4074 155.164C79.9974 154.369 79.9907 153.032 81.3874 152.21Z"
            fill="white" />
    </g>
    <g opacity="0.7">
        <path opacity="0.7"
            d="M203.592 212.402C204.173 212.736 204.481 213.07 204.501 213.458C204.521 213.845 204.267 214.173 203.726 214.487C203.227 214.762 202.684 214.947 202.122 215.035C201.214 215.163 200.298 215.218 199.382 215.202H195.927L199.496 217.26L199.055 217.514L194.885 215.101L195.279 214.874L198.894 214.827C199.91 214.827 200.652 214.827 201.12 214.754C201.532 214.718 201.94 214.651 202.342 214.553C202.666 214.472 202.976 214.346 203.265 214.179C203.666 213.952 203.853 213.691 203.839 213.397C203.826 213.103 203.605 212.829 203.171 212.589C202.49 212.236 201.739 212.04 200.972 212.014L201.039 211.693C201.935 211.721 202.81 211.964 203.592 212.402Z"
            fill="white" />
    </g>
    <g opacity="0.7">
        <path opacity="0.7"
            d="M208.945 215.489C209.56 215.843 209.894 216.204 209.934 216.558C209.974 216.912 209.74 217.227 209.219 217.561C208.782 217.805 208.29 217.934 207.789 217.935C207.247 217.949 206.707 217.851 206.205 217.648V217.648C206.39 217.752 206.551 217.896 206.674 218.069C206.798 218.242 206.882 218.441 206.92 218.65C206.92 218.971 206.699 219.265 206.252 219.525C205.622 219.893 204.894 220.059 204.167 220C203.341 219.93 202.542 219.669 201.834 219.238C201.27 218.948 200.788 218.52 200.431 217.995L200.879 217.734C201.028 217.983 201.213 218.208 201.427 218.403C201.667 218.626 201.932 218.821 202.215 218.984C202.794 219.352 203.451 219.581 204.133 219.652C204.709 219.699 205.285 219.568 205.784 219.278C206.218 219.024 206.385 218.73 206.272 218.396C206.158 218.062 205.777 217.728 205.109 217.313L204.387 216.892L204.822 216.645L205.55 217.06C206.068 217.374 206.656 217.557 207.261 217.594C207.799 217.639 208.339 217.523 208.811 217.26C209.172 217.046 209.339 216.799 209.299 216.518C209.252 216.346 209.168 216.186 209.052 216.05C208.937 215.914 208.793 215.804 208.631 215.73C208.303 215.538 207.953 215.388 207.588 215.282C207.13 215.161 206.663 215.073 206.192 215.021L206.272 214.721C206.76 214.75 207.244 214.831 207.715 214.961C208.144 215.09 208.556 215.267 208.945 215.489Z"
            fill="white" />
    </g>
    <g opacity="0.3">
        <path opacity="0.3"
            d="M220.365 219.505L209.165 226.001C208.375 226.405 207.5 226.615 206.613 226.615C205.725 226.615 204.85 226.405 204.06 226.001L181.479 212.97C180.076 212.161 180.069 210.825 181.479 210.009L192.653 203.52C193.442 203.121 194.314 202.914 195.199 202.914C196.083 202.914 196.955 203.121 197.745 203.52L220.325 216.558C221.742 217.36 221.762 218.697 220.365 219.505Z"
            fill="white" />
    </g>
    <g opacity="0.7">
        <path opacity="0.7"
            d="M198.754 209.715L192.131 213.564L191.69 213.311L196.515 210.504C196.956 210.25 197.431 209.996 197.932 209.742H197.658L195.152 209.568L195.212 209.234L198.366 209.495L198.754 209.715Z"
            fill="white" />
    </g>
    <path d="M261.523 208.953L243.467 219.445L92.5874 132.329L110.644 121.837L261.523 208.953Z" fill="#111026" />
    <g opacity="0.7">
        <path opacity="0.7"
            d="M78.2331 179.309C78.4617 179.433 78.6602 179.607 78.8145 179.817L78.4469 179.917C78.3146 179.733 78.1435 179.58 77.9457 179.469C77.797 179.38 77.6304 179.325 77.4579 179.309C77.3098 179.292 77.1601 179.322 77.0302 179.396C76.9592 179.433 76.8992 179.488 76.8565 179.556C76.8422 179.586 76.8348 179.619 76.8348 179.653C76.8348 179.686 76.8422 179.72 76.8565 179.75C76.9136 179.86 76.9831 179.963 77.0636 180.057C77.2049 180.195 77.2965 180.376 77.3243 180.572C77.3243 180.699 77.2173 180.812 77.0369 180.919C76.7956 181.056 76.5177 181.115 76.2417 181.086C75.9279 181.062 75.6238 180.966 75.3529 180.806C75.1176 180.689 74.912 180.519 74.7515 180.311L75.0455 180.144C75.1192 180.243 75.2044 180.333 75.2994 180.411C75.4028 180.502 75.5147 180.583 75.6336 180.652C75.8098 180.762 76.0085 180.83 76.215 180.853C76.3833 180.871 76.5533 180.838 76.7028 180.759C76.7897 180.706 76.8498 180.652 76.8632 180.592C76.8772 180.56 76.8844 180.526 76.8844 180.492C76.8844 180.457 76.8772 180.423 76.8632 180.391C76.7982 180.274 76.7197 180.164 76.6293 180.064C76.5008 179.934 76.4268 179.759 76.4221 179.576C76.4221 179.449 76.5357 179.329 76.7295 179.215C76.9461 179.091 77.196 179.037 77.4445 179.062C77.7221 179.086 77.9911 179.171 78.2331 179.309V179.309Z"
            fill="white" />
        <path opacity="0.7"
            d="M81.0064 180.959L80.7391 181.12L79.5629 180.438L78.7142 180.933L79.8169 181.568L79.5429 181.728L78.4403 181.093L77.4713 181.654L78.6474 182.336L78.3734 182.496L76.8899 181.641L79.5295 180.104L81.0064 180.959Z"
            fill="white" />
        <path opacity="0.7"
            d="M81.2938 182.811L80.8327 183.913L80.4651 183.706L80.9195 182.697L80.3649 182.376L79.2689 183.011L78.9615 182.837L81.6346 181.307L82.363 181.728C82.6837 181.908 82.8642 182.089 82.8976 182.249C82.931 182.41 82.8174 182.563 82.5701 182.704C82.3776 182.812 82.1639 182.878 81.9436 182.896C81.7234 182.915 81.5017 182.886 81.2938 182.811ZM81.0532 182.463C81.236 182.581 81.4448 182.652 81.6613 182.67C81.8505 182.675 82.0375 182.629 82.2026 182.537C82.3763 182.43 82.4499 182.329 82.4231 182.222C82.3964 182.116 82.2694 182.002 82.0422 181.868L81.6413 181.641L80.6322 182.222L81.0532 182.463"
            fill="white" />
        <path opacity="0.7"
            d="M85.7443 183.699L82.1558 184.675L81.8484 184.501L83.5324 182.436L83.8598 182.623L82.7639 183.96C82.6367 184.111 82.5005 184.253 82.3563 184.388C82.5968 184.301 82.8508 184.221 83.1114 184.147L85.4169 183.512L85.7443 183.699Z"
            fill="white" />
        <path opacity="0.7" d="M86.4126 184.087L83.7797 185.617L83.4723 185.437L86.1052 183.906L86.4126 184.087Z"
            fill="white" />
        <path opacity="0.7"
            d="M88.3306 185.143C88.5627 185.26 88.7606 185.435 88.9053 185.651L88.511 185.731C88.3948 185.553 88.2364 185.406 88.0499 185.303C87.7527 185.13 87.4109 185.049 87.0676 185.069C86.6972 185.085 86.3365 185.193 86.0184 185.383C85.6776 185.584 85.4905 185.791 85.4704 185.992C85.4504 186.192 85.5774 186.379 85.8848 186.56C86.1179 186.684 86.3617 186.786 86.6132 186.867L86.3459 187.021C86.0717 186.944 85.8088 186.832 85.564 186.687C85.1697 186.459 84.9826 186.219 85.0093 185.958C85.0361 185.697 85.2633 185.444 85.6776 185.19C85.9455 185.035 86.2366 184.924 86.5397 184.862C86.8447 184.809 87.1568 184.809 87.4619 184.862C87.7661 184.902 88.0605 184.997 88.3306 185.143V185.143Z"
            fill="white" />
        <path opacity="0.7"
            d="M90.9701 186.713L90.7028 186.874L89.5334 186.192L88.6847 186.687L89.7806 187.321L89.5066 187.482L88.4107 186.847L87.4417 187.408L88.6112 188.09L88.3372 188.25L86.8536 187.395L89.4933 185.858L90.9701 186.713Z"
            fill="white" />
        <path opacity="0.7"
            d="M94.6055 188.812L91.9726 190.342L91.6117 190.142L92.3735 188.016C92.133 188.177 91.9124 188.324 91.7053 188.451L90.2084 189.32L89.921 189.152L92.554 187.622L92.9015 187.823L92.1463 189.941L92.447 189.747C92.6141 189.64 92.7344 189.567 92.8146 189.527L94.3315 188.645L94.6055 188.812Z"
            fill="white" />
        <path opacity="0.7"
            d="M79.5229 187.729L74.5377 190.629L73.983 190.309L77.5315 188.244C77.8322 188.07 78.1262 187.909 78.4002 187.769H78.0928L76.6093 187.682L76.6962 187.288L79.0418 187.455L79.5229 187.729Z"
            fill="white" />
        <path opacity="0.7"
            d="M97.3387 190.389L95.628 191.384C95.3318 191.556 94.9946 191.644 94.6523 191.638C94.295 191.629 93.9458 191.53 93.6365 191.351C93.3247 191.164 93.1643 190.97 93.1554 190.77C93.1554 190.569 93.3024 190.382 93.6098 190.202L95.3072 189.219L95.6146 189.393L93.8905 190.395C93.6766 190.525 93.5697 190.658 93.5697 190.796C93.5697 190.93 93.69 191.07 93.9239 191.204C94.1279 191.322 94.3568 191.391 94.5922 191.405C94.8277 191.397 95.0575 191.33 95.2604 191.211L96.9778 190.215L97.3387 190.389Z"
            fill="white" />
        <path opacity="0.7"
            d="M83.078 189.7C83.5524 189.974 83.8064 190.255 83.8264 190.549C83.8465 190.843 83.6727 191.11 83.2651 191.344C82.8891 191.548 82.4793 191.682 82.0555 191.739C81.333 191.828 80.6047 191.861 79.877 191.839H77.7118L80.298 193.336L79.7701 193.637L76.4689 191.732L76.9567 191.451H79.6297C80.4317 191.451 80.9863 191.438 81.2937 191.411C81.5593 191.388 81.8228 191.345 82.0823 191.284C82.3021 191.228 82.5134 191.143 82.7104 191.03C82.9777 190.877 83.1047 190.71 83.098 190.522C83.0913 190.335 82.9443 190.162 82.657 189.994C82.4468 189.873 82.2223 189.779 81.9887 189.714C81.6628 189.631 81.3291 189.581 80.993 189.567L81.0732 189.172C81.7731 189.192 82.4591 189.373 83.078 189.7V189.7Z"
            fill="white" />
        <path opacity="0.7"
            d="M100.673 192.313L98.0002 193.844L97.6929 193.67L99.3902 192.681C99.584 192.567 99.8112 192.447 100.058 192.327L96.8308 193.129L96.5769 192.988L98.0203 191.11C97.8532 191.231 97.6394 191.364 97.352 191.511L95.6747 192.487L95.394 192.32L98.027 190.79L98.4881 191.057L97.1516 192.808L100.172 192.026L100.673 192.313Z"
            fill="white" />
        <path opacity="0.7"
            d="M101.382 194.178C101.716 194.452 101.709 194.686 101.382 194.893C101.142 195.034 100.864 195.098 100.586 195.073C100.279 195.054 99.9805 194.96 99.7177 194.799L98.7888 194.265L101.462 192.734L102.204 193.169C102.458 193.277 102.673 193.461 102.818 193.697C102.872 193.85 102.785 193.997 102.564 194.124C102.405 194.215 102.227 194.268 102.043 194.278C101.841 194.282 101.641 194.243 101.455 194.164L101.382 194.178ZM100.493 194.846C100.684 194.861 100.876 194.817 101.041 194.719C101.208 194.619 101.268 194.519 101.235 194.412C101.201 194.305 101.074 194.185 100.847 194.051L100.319 193.75L99.3301 194.318L99.8848 194.639C100.069 194.753 100.277 194.824 100.493 194.846V194.846ZM101.442 193.095L100.58 193.596L101.088 193.891C101.263 194 101.458 194.072 101.662 194.104C101.831 194.117 102 194.074 102.143 193.984C102.297 193.897 102.351 193.804 102.311 193.703C102.205 193.553 102.062 193.434 101.896 193.356L101.442 193.095Z"
            fill="white" />
        <path opacity="0.7"
            d="M87.1009 192.019C87.5887 192.3 87.856 192.587 87.9028 192.868C87.9496 193.149 87.7825 193.409 87.3949 193.637C87.0759 193.822 86.7148 193.923 86.3458 193.931C85.9442 193.944 85.5441 193.876 85.1696 193.73V193.73C85.5238 193.997 85.6976 194.238 85.6909 194.472C85.6842 194.706 85.5038 194.913 85.1696 195.14C84.6885 195.419 84.1326 195.54 83.5792 195.488C82.9411 195.43 82.3242 195.229 81.7749 194.9C81.5385 194.767 81.3148 194.612 81.1066 194.438C80.9324 194.305 80.785 194.139 80.6722 193.951L81.2135 193.637C81.3352 193.84 81.4886 194.023 81.6679 194.178C81.8552 194.352 82.0614 194.504 82.2827 194.632C82.6143 194.873 83.007 195.016 83.4158 195.044C83.8247 195.073 84.2333 194.985 84.5949 194.793C85.203 194.438 85.0226 193.991 84.067 193.456L83.5324 193.129L84.0202 192.848L84.5214 193.135C84.8836 193.353 85.2903 193.485 85.7109 193.523C86.0774 193.563 86.4471 193.486 86.7668 193.302C87.0074 193.162 87.121 193.002 87.0942 192.828C87.0675 192.654 86.9004 192.48 86.6131 192.313C86.3885 192.181 86.1483 192.078 85.898 192.006C85.5748 191.91 85.2439 191.843 84.909 191.805L85.0026 191.418C85.3713 191.446 85.7362 191.51 86.0918 191.612C86.4436 191.706 86.7825 191.843 87.1009 192.019V192.019Z"
            fill="white" />
        <path opacity="0.7"
            d="M105.284 194.98L105.017 195.133L103.848 194.459L102.999 194.953L104.102 195.588L103.828 195.748L102.725 195.113L101.749 195.675L102.925 196.35L102.651 196.51L101.168 195.655L103.807 194.124L105.284 194.98Z"
            fill="white" />
        <path opacity="0.7" d="M90.0814 197.132L89.5601 197.439L87.8761 196.463L88.3973 196.163L90.0814 197.132Z"
            fill="white" />
        <path opacity="0.7"
            d="M105.585 196.831L105.124 197.934L104.763 197.72L105.218 196.717L104.656 196.397L103.567 197.031L103.26 196.851L105.892 195.321L106.621 195.742C106.948 195.929 107.122 196.102 107.155 196.263C107.189 196.423 107.075 196.584 106.828 196.724C106.639 196.824 106.431 196.885 106.217 196.904C106.004 196.922 105.789 196.897 105.585 196.831V196.831ZM105.351 196.483C105.53 196.603 105.738 196.672 105.953 196.684C106.142 196.695 106.331 196.649 106.494 196.55C106.668 196.45 106.741 196.35 106.721 196.243C106.701 196.136 106.561 196.022 106.334 195.889L105.933 195.655L104.923 196.243L105.351 196.483"
            fill="white" />
        <path opacity="0.7"
            d="M97.5124 198.121L92.5205 201.014L91.9658 200.694L95.521 198.629C95.815 198.455 96.109 198.301 96.3897 198.161H96.0823L94.5988 198.074L94.6856 197.673L97.0312 197.847L97.5124 198.121Z"
            fill="white" />
        <path opacity="0.7"
            d="M101.074 200.092C101.542 200.359 101.796 200.647 101.823 200.941C101.849 201.235 101.662 201.502 101.261 201.736C100.884 201.937 100.475 202.07 100.052 202.13C99.329 202.216 98.601 202.249 97.8733 202.231H95.7015L98.2877 203.721L97.7664 204.028L94.4652 202.124L94.953 201.836H97.5659C98.3745 201.836 98.9025 201.836 99.2366 201.789C99.5003 201.769 99.7619 201.727 100.018 201.663C100.238 201.609 100.449 201.526 100.647 201.415C100.914 201.255 101.048 201.088 101.041 200.901C101.034 200.714 100.887 200.547 100.593 200.379C100.384 200.254 100.16 200.157 99.9249 200.092C99.5981 200.014 99.2648 199.967 98.9292 199.952L99.0161 199.551C99.7348 199.569 100.439 199.755 101.074 200.092V200.092Z"
            fill="white" />
        <path opacity="0.7"
            d="M105.097 202.411C105.578 202.692 105.846 202.972 105.892 203.26C105.939 203.547 105.779 203.801 105.384 204.028C105.064 204.211 104.704 204.312 104.335 204.322C103.936 204.332 103.539 204.264 103.166 204.122V204.122C103.52 204.382 103.687 204.63 103.68 204.864C103.674 205.097 103.5 205.305 103.166 205.498C102.683 205.778 102.124 205.9 101.569 205.846C100.665 205.733 99.8109 205.369 99.1028 204.797C98.9302 204.659 98.7831 204.491 98.6685 204.302L99.2031 203.988C99.3251 204.191 99.4785 204.374 99.6575 204.529C99.8464 204.704 100.055 204.857 100.279 204.984C100.61 205.225 101.002 205.369 101.411 205.398C101.82 205.428 102.229 205.342 102.591 205.151C103.199 204.797 103.019 204.342 102.063 203.814L101.569 203.527L102.057 203.24L102.551 203.534C102.917 203.747 103.325 203.879 103.747 203.921C104.114 203.958 104.482 203.881 104.803 203.701C105.044 203.56 105.157 203.4 105.124 203.22C105.09 203.039 104.93 202.872 104.649 202.705C104.422 202.578 104.183 202.475 103.934 202.398C103.611 202.305 103.28 202.24 102.945 202.204L103.039 201.816C103.407 201.842 103.772 201.905 104.128 202.003C104.466 202.102 104.791 202.238 105.097 202.411V202.411Z"
            fill="white" />
        <path opacity="0.7"
            d="M106.921 207.416L107.67 207.844L107.155 208.145L106.407 207.717L105.264 208.385L104.716 208.071L105.866 207.403L103.42 205.993L103.914 205.706L109.675 205.124L110.276 205.472L106.921 207.416ZM108.037 206.133C108.365 205.946 108.746 205.739 109.174 205.518C108.846 205.585 108.559 205.625 108.325 205.659L104.529 206.04L106.407 207.122L108.064 206.153"
            fill="white" />
        <path opacity="0.7"
            d="M57.9247 167.587C58.1567 167.705 58.3545 167.879 58.4995 168.095L58.1052 168.175C57.9889 167.997 57.8306 167.85 57.6441 167.748C57.346 167.577 57.0049 167.496 56.6617 167.514C56.2941 167.534 55.9366 167.641 55.6192 167.828C55.2784 168.028 55.0913 168.236 55.0646 168.436C55.0379 168.636 55.1782 168.83 55.4789 169.004C55.7113 169.13 55.9552 169.233 56.2073 169.311L55.94 169.465C55.6638 169.395 55.4001 169.282 55.1581 169.131C54.7706 168.91 54.5834 168.67 54.6102 168.409C54.6369 168.149 54.8574 167.888 55.2784 167.634C55.5471 167.477 55.8411 167.369 56.1472 167.313C56.4501 167.261 56.7598 167.261 57.0627 167.313C57.3645 167.351 57.6567 167.444 57.9247 167.587V167.587Z"
            fill="white" />
        <path opacity="0.7"
            d="M61.099 169.465L59.3882 170.461C59.0928 170.633 58.7546 170.719 58.4126 170.708C58.0554 170.704 57.7053 170.608 57.3968 170.427C57.076 170.24 56.9156 170.047 56.9156 169.846C56.9156 169.646 57.0627 169.452 57.3634 169.278L59.0608 168.289L59.3748 168.469L57.6507 169.472C57.4369 169.599 57.33 169.732 57.3233 169.866C57.3166 170 57.4503 170.147 57.6841 170.28C57.8869 170.401 58.1165 170.47 58.3524 170.481C58.5879 170.473 58.8177 170.407 59.0207 170.287L60.8116 169.291L61.099 169.465Z"
            fill="white" />
        <path opacity="0.7"
            d="M73.9162 178.554L73.4551 179.656L73.0942 179.449L73.542 178.44L72.9873 178.119L71.8914 178.754L71.584 178.574L74.2236 177.043L74.952 177.464C75.2728 177.651 75.4599 177.825 75.4866 177.992C75.5134 178.159 75.4131 178.306 75.1659 178.447C74.9765 178.551 74.7675 178.614 74.5523 178.632C74.3371 178.651 74.1205 178.624 73.9162 178.554ZM73.6756 178.206C73.862 178.321 74.0723 178.392 74.2904 178.413C74.4784 178.419 74.6641 178.37 74.825 178.273C74.9988 178.173 75.0723 178.066 75.0523 177.966C75.0322 177.865 74.8919 177.745 74.658 177.611L74.257 177.377L73.2546 177.966L73.6756 178.206"
            fill="white" />
        <path opacity="0.7"
            d="M73.6288 176.703L73.3615 176.856L72.1854 176.181L71.3367 176.676L72.4393 177.311L72.1653 177.471L71.0627 176.836L70.0937 177.398L71.2699 178.073L70.9959 178.233L69.5123 177.377L72.1453 175.847L73.6288 176.703Z"
            fill="white" />
        <path opacity="0.7"
            d="M71.4235 175.426L68.7906 176.963L68.4765 176.783L70.1805 175.794C70.3743 175.68 70.5949 175.566 70.8488 175.44L67.6011 176.268L67.3538 176.128L68.7906 174.25C68.6235 174.364 68.4097 174.497 68.1223 174.644L66.4517 175.62L66.1643 175.453L68.7972 173.923L69.265 174.197L67.9285 175.941L70.949 175.166L71.4235 175.426Z"
            fill="white" />
        <g opacity="0.7">
            <path opacity="0.7"
                d="M62.5424 170.254C62.7725 170.376 62.9714 170.55 63.1238 170.762L62.7629 170.862C62.6319 170.674 62.4578 170.521 62.2551 170.414C62.1105 170.32 61.9454 170.263 61.7739 170.247C61.6249 170.229 61.4743 170.262 61.3462 170.341C61.2756 170.378 61.214 170.431 61.1658 170.494C61.1429 170.559 61.1429 170.63 61.1658 170.695C61.2245 170.804 61.2939 170.907 61.373 171.002C61.5168 171.138 61.6089 171.32 61.6336 171.517C61.6336 171.644 61.5334 171.757 61.3462 171.864C61.1049 172.001 60.827 172.06 60.551 172.031C60.2393 172.002 59.938 171.904 59.6689 171.744C59.4312 171.631 59.2231 171.464 59.0608 171.256L59.3548 171.082C59.4267 171.183 59.5122 171.273 59.6088 171.35C59.7126 171.445 59.827 171.528 59.9496 171.597C60.1263 171.706 60.3248 171.774 60.531 171.797C60.6957 171.814 60.8616 171.779 61.0054 171.697C61.099 171.644 61.1591 171.59 61.1725 171.537C61.1869 171.505 61.1944 171.471 61.1944 171.437C61.1944 171.402 61.1869 171.368 61.1725 171.336C61.113 171.217 61.0364 171.106 60.9453 171.009C60.8138 170.88 60.7372 170.705 60.7314 170.521C60.7314 170.394 60.845 170.274 61.0455 170.16C61.262 170.036 61.512 169.982 61.7606 170.006C62.0367 170.028 62.3041 170.113 62.5424 170.254V170.254Z"
                fill="white" />
            <path opacity="0.7"
                d="M65.4961 172.005L65.2221 172.158L64.3868 171.677L62.0144 173.054L61.707 172.873L64.0727 171.497L63.2373 171.016L63.5046 170.855L65.4961 172.005Z"
                fill="white" />
            <path opacity="0.7"
                d="M67.5678 173.568C67.5321 173.827 67.3094 174.081 66.8995 174.33C66.4954 174.575 66.035 174.71 65.563 174.724C65.1212 174.745 64.6828 174.639 64.3 174.417C63.9124 174.197 63.732 173.949 63.7587 173.689C63.7854 173.428 64.0059 173.174 64.427 172.92C64.8319 172.678 65.2918 172.542 65.7635 172.526C66.2037 172.508 66.6398 172.617 67.0198 172.84C67.4141 173.08 67.5878 173.308 67.5678 173.568ZM65.5229 174.491C65.89 174.455 66.2441 174.336 66.5587 174.143C66.9129 173.936 67.1067 173.735 67.1468 173.542C67.1869 173.348 67.0465 173.174 66.7525 173C66.4665 172.836 66.1396 172.758 65.8103 172.773C65.4438 172.803 65.0893 172.917 64.7744 173.107C64.4136 173.314 64.2198 173.522 64.1931 173.715C64.1663 173.909 64.2866 174.096 64.5806 174.263C64.8654 174.431 65.1933 174.51 65.5229 174.491"
                fill="white" />
        </g>
        <path opacity="0.7"
            d="M51.5829 171.597L46.591 174.497L46.0364 174.176L49.5915 172.112C49.8922 171.938 50.1796 171.777 50.4536 171.637H50.1194L48.6426 171.55L48.7228 171.156L51.0751 171.33L51.5829 171.597Z"
            fill="white" />
        <path opacity="0.7" d="M54.0956 176.355L53.5744 176.662L51.8904 175.687L52.4116 175.386L54.0956 176.355Z"
            fill="white" />
        <path opacity="0.7"
            d="M69.7863 182.784C69.4458 183.375 68.9263 183.843 68.3027 184.12C67.5895 184.568 66.7945 184.87 65.9638 185.009C65.3094 185.108 64.6409 184.983 64.066 184.655C63.5247 184.341 63.3376 183.987 63.4846 183.559C63.8348 182.971 64.3574 182.504 64.9815 182.222C65.6972 181.78 66.4911 181.478 67.3204 181.334C67.9683 181.238 68.6297 181.363 69.1982 181.688C69.7462 181.995 69.9467 182.363 69.7863 182.784ZM65.8836 184.568C66.5339 184.414 67.1546 184.154 67.7214 183.8C68.2449 183.554 68.7029 183.187 69.0579 182.73C69.2183 182.443 69.1113 182.189 68.7304 181.969C68.3233 181.743 67.8472 181.677 67.3939 181.781C66.7434 181.935 66.1226 182.195 65.5562 182.55C65.0358 182.801 64.579 183.167 64.2197 183.619C64.066 183.913 64.1729 184.167 64.5471 184.381C64.9532 184.609 65.4305 184.676 65.8836 184.568"
            fill="white" />
        <path opacity="0.7"
            d="M65.7634 180.432C65.4208 181.021 64.9019 181.489 64.2798 181.768C63.5664 182.214 62.7713 182.514 61.9409 182.65C61.2865 182.749 60.618 182.624 60.0431 182.296C59.5018 181.989 59.308 181.628 59.4684 181.207C59.8064 180.611 60.3296 180.142 60.9586 179.87C61.6722 179.418 62.4702 179.116 63.3042 178.981C63.9521 178.884 64.6138 179.009 65.182 179.336C65.7233 179.67 65.9171 180.037 65.7634 180.432ZM61.8607 182.216C62.5102 182.065 63.1293 181.805 63.6918 181.447C64.215 181.204 64.6731 180.84 65.0283 180.385C65.1887 180.091 65.0817 179.837 64.7008 179.616C64.2937 179.391 63.8176 179.324 63.3643 179.429C62.7137 179.586 62.093 179.848 61.5266 180.204C61.0036 180.451 60.5458 180.817 60.1901 181.274C60.0364 181.561 60.1366 181.815 60.5175 182.035C60.9245 182.261 61.4017 182.326 61.854 182.216"
            fill="white" />
        <path opacity="0.7"
            d="M61.7405 178.133C61.3997 178.724 60.8803 179.192 60.257 179.469C59.543 179.914 58.7482 180.214 57.918 180.351C57.2644 180.452 56.5957 180.33 56.0202 180.004C55.4789 179.69 55.2851 179.336 55.4388 178.908C55.7824 178.317 56.304 177.849 56.929 177.571C57.6437 177.121 58.4412 176.819 59.2746 176.683C59.9226 176.585 60.5845 176.71 61.1524 177.037C61.7004 177.351 61.8942 177.718 61.7405 178.133ZM57.8379 179.924C58.485 179.766 59.103 179.506 59.6689 179.155C60.1902 178.905 60.6475 178.54 61.0054 178.086C61.1658 177.798 61.0522 177.538 60.678 177.324C60.2715 177.097 59.7956 177.028 59.3414 177.13C58.6904 177.286 58.0695 177.548 57.5037 177.905C56.9807 178.152 56.5229 178.519 56.1672 178.975C56.0068 179.269 56.1137 179.516 56.4947 179.736C56.9016 179.962 57.3779 180.029 57.8312 179.924"
            fill="white" />
        <path opacity="0.7" d="M72.0919 186.747L71.5706 187.047L69.8866 186.072L70.4012 185.771L72.0919 186.747Z"
            fill="white" />
    </g>
    <path
        d="M228.585 178.527L245.151 187.883L261.677 197.305L265.814 199.664L267.872 200.847C268.679 201.203 269.314 201.86 269.643 202.678C269.773 203.135 269.738 203.622 269.543 204.055C269.352 204.463 269.066 204.818 268.707 205.091C268.376 205.338 268.028 205.561 267.665 205.759L266.642 206.354L262.533 208.753L246.1 218.343L213.175 237.388L196.656 246.858L180.116 256.267L196.468 246.55L212.868 236.901L245.726 217.708L262.192 208.178L266.308 205.799L267.337 205.204C267.673 205.023 267.997 204.82 268.306 204.596C268.589 204.416 268.81 204.154 268.94 203.844C269.069 203.535 269.1 203.193 269.028 202.865C268.751 202.2 268.223 201.672 267.558 201.395L265.5 200.199L261.397 197.807L244.971 188.204L228.585 178.527Z"
        fill="white" />
    <g style="mix-blend-mode:soft-light" opacity="0.4">
        <rect x="34.5022" y="93.095" width="206.252" height="137.45" fill="url(#pattern0)" />
    </g>
    <path
        d="M241.556 118.783V120.568C241.521 120.978 241.379 121.372 241.144 121.711C240.91 122.05 240.591 122.321 240.219 122.499L152.256 173.588C151.222 174.116 150.077 174.392 148.915 174.392C147.753 174.392 146.608 174.116 145.574 173.588L1.39666 90.3551C1.01141 90.1833 0.678912 89.912 0.433417 89.569C0.187923 89.226 0.0383127 88.8238 0 88.4037L0 86.6127C0.0372279 87.0331 0.185577 87.4359 0.429834 87.78C0.674091 88.1241 1.00547 88.397 1.38998 88.5708L145.574 171.804C146.608 172.332 147.753 172.607 148.915 172.607C150.077 172.607 151.222 172.332 152.256 171.804L240.179 120.715C240.56 120.544 240.888 120.275 241.13 119.936C241.372 119.596 241.519 119.199 241.556 118.783Z"
        fill="url(#paint5_linear_750_2621)" />
    <g style="mix-blend-mode:soft-light">
        <path style="mix-blend-mode:soft-light"
            d="M240.166 116.832C242.017 117.901 242.024 119.639 240.166 120.708L152.263 171.804C151.228 172.332 150.083 172.607 148.922 172.607C147.76 172.607 146.615 172.332 145.58 171.804L1.40339 88.5641C-0.44769 87.5016 -0.454372 85.764 1.40339 84.6881L89.3063 33.5987C90.3409 33.0707 91.486 32.7954 92.6476 32.7954C93.8092 32.7954 94.9542 33.0707 95.9889 33.5987L240.166 116.832Z"
            fill="url(#paint6_linear_750_2621)" />
    </g>
    <path
        d="M102.244 44.8925L98.4013 47.1245L92.9617 43.9836L95.3139 42.6471C95.7766 42.4118 96.2884 42.2891 96.8075 42.2891C97.3266 42.2891 97.8384 42.4118 98.3011 42.6471L102.244 44.8925Z"
        fill="url(#paint7_linear_750_2621)" />
    <path d="M97.058 47.2314H87.3616L92.1931 44.4247L97.058 47.2314Z" fill="url(#paint8_linear_750_2621)" />
    <path d="M97.1049 47.8663L87.776 53.286L82.343 50.1518L86.2857 47.8596L97.1049 47.8663Z"
        fill="url(#paint9_linear_750_2621)" />
    <path d="M114.827 52.1566L110.985 54.3886L99.1698 47.5656L103.006 45.3336L114.827 52.1566Z"
        fill="url(#paint10_linear_750_2621)" />
    <path
        d="M87.0142 53.7404L83.1783 55.9725L79.2423 53.6936C78.4136 53.2192 78.407 52.444 79.2423 51.9695L81.5946 50.6329L87.0142 53.7404Z"
        fill="url(#paint11_linear_750_2621)" />
    <path d="M103.928 51.201L94.0777 56.9214L88.5511 53.7337L98.4013 48.0133L103.928 51.201Z"
        fill="url(#paint12_linear_750_2621)" />
    <path
        d="M119.538 54.8765C119.718 54.9403 119.873 55.0581 119.982 55.2137C120.092 55.3692 120.151 55.5549 120.151 55.7452C120.151 55.9356 120.092 56.1213 119.982 56.2768C119.873 56.4323 119.718 56.5501 119.538 56.614L117.186 57.9505L111.76 54.8163L115.609 52.6044L119.538 54.8765Z"
        fill="url(#paint13_linear_750_2621)" />
    <path d="M110.223 54.8364L100.373 60.5568L94.8528 57.3691L104.703 51.6487L110.223 54.8364Z"
        fill="url(#paint14_linear_750_2621)" />
    <path d="M116.424 58.4183L112.528 60.6838H101.709L110.998 55.2841L116.424 58.4183Z"
        fill="url(#paint15_linear_750_2621)" />
    <path d="M99.5974 61.0045L95.7616 63.2366L83.9468 56.4135L87.7826 54.1815L99.5974 61.0045Z"
        fill="url(#paint16_linear_750_2621)" />
    <path d="M111.446 61.3119L106.574 64.1454L101.669 61.3119H111.446Z" fill="url(#paint17_linear_750_2621)" />
    <path
        d="M105.812 64.5932L103.46 65.9297C102.997 66.1651 102.485 66.2877 101.966 66.2877C101.447 66.2877 100.936 66.1651 100.473 65.9297L96.5435 63.6576L100.379 61.479L105.812 64.5932Z"
        fill="url(#paint18_linear_750_2621)" />
    <path
        d="M123.688 135.276L119.144 140.816L117.533 139.887L118.69 138.618L116.117 137.134L113.932 137.802L112.321 136.874L121.864 134.2L123.688 135.276ZM117.741 136.613L119.578 137.675C120.614 136.519 121.209 135.871 121.349 135.717L121.69 135.37C121.175 135.55 119.859 135.958 117.741 136.613Z"
        fill="url(#paint19_linear_750_2621)" />
    <path
        d="M114.62 134.588C114.47 134.947 114.188 135.234 113.831 135.39C113.164 135.769 112.396 135.933 111.633 135.858C110.773 135.785 109.941 135.518 109.2 135.076L106.527 133.552L113.604 129.469L115.803 130.739C116.805 131.32 117.387 131.821 117.554 132.249C117.721 132.677 117.507 133.064 116.885 133.425C116.476 133.663 116.02 133.808 115.549 133.853C115.113 133.889 114.676 133.82 114.272 133.652H114.226C114.553 134.027 114.693 134.321 114.62 134.588ZM111.412 134.655C111.768 134.675 112.122 134.589 112.428 134.408C113.009 134.073 112.876 133.659 112.04 133.178L111.112 132.637L109.287 133.699L110.263 134.267C110.611 134.483 111.005 134.615 111.412 134.655V134.655ZM113.858 131.046L112.268 131.948L113.136 132.45C113.46 132.659 113.825 132.798 114.206 132.857C114.518 132.884 114.832 132.812 115.101 132.65C115.375 132.496 115.462 132.323 115.382 132.142C115.193 131.854 114.93 131.623 114.62 131.474L113.831 131.019"
        fill="url(#paint20_linear_750_2621)" />
    <path
        d="M133.318 140.87L126.301 144.946L124.397 143.85L126.629 138.992H126.588C125.713 139.573 125.078 139.981 124.677 140.215L121.376 142.133L120.04 141.358L127.063 137.281L128.974 138.33L126.782 143.155C127.644 142.601 128.259 142.206 128.64 141.986L131.981 140.054L133.318 140.87Z"
        fill="url(#paint21_linear_750_2621)" />
    <path
        d="M140.756 145.16L135.189 145.548L133.759 149.257L132.055 148.274L133.164 145.488L132.075 145.381L129.569 146.837L128.079 145.975L135.095 141.892L136.592 142.754L133.378 144.625L134.801 144.485L139.092 144.204L140.756 145.16Z"
        fill="url(#paint22_linear_750_2621)" />
    <path d="M150.499 152.21L150.506 154.516H146.529L146.516 152.21H150.499Z" fill="url(#paint23_linear_750_2621)" />
    <path d="M150.472 148.348L150.492 151.662L145.567 151.669L145.58 154.516H139.853L139.82 148.348H150.472Z"
        fill="url(#paint24_linear_750_2621)" />
    <path d="M157.168 152.21L157.201 158.385H146.549L146.529 155.064H151.454L151.441 152.21H157.168Z"
        fill="url(#paint25_linear_750_2621)" />
    <g opacity="0.7">
        <path opacity="0.7"
            d="M218.594 115.028C218.594 115.536 218.247 116.01 217.478 116.458C216.696 116.918 215.8 117.15 214.892 117.126C213.949 117.094 213.029 116.822 212.219 116.337L210.796 115.516L215.768 112.629L217.345 113.537C218.147 114.025 218.568 114.513 218.594 115.028ZM213.182 115.903C213.661 116.193 214.213 116.342 214.774 116.331C215.335 116.321 215.881 116.151 216.349 115.843C217.412 115.221 217.479 114.64 216.523 114.085L215.962 113.758L212.727 115.642L213.182 115.903"
            fill="white" />
        <path opacity="0.7"
            d="M210.856 113.063C210.495 114.152 210.268 114.847 210.188 115.175L209.012 114.506L209.727 112.709L209.165 112.381L207.254 113.491L206.198 112.883L211.163 109.989L212.62 110.831C213.288 111.225 213.683 111.586 213.763 111.92C213.843 112.254 213.629 112.588 213.135 112.849C212.818 113.027 212.467 113.134 212.106 113.163C211.686 113.202 211.264 113.168 210.856 113.063ZM211.244 112.395C211.509 112.424 211.777 112.365 212.005 112.228C212.246 112.087 212.333 111.947 212.266 111.793C212.121 111.561 211.909 111.379 211.658 111.272L211.337 111.085L210.001 111.867L210.341 112.061C210.618 112.234 210.927 112.348 211.25 112.395"
            fill="white" />
        <path opacity="0.7"
            d="M208.758 108.579L205.537 112.502L204.394 111.833L205.216 110.938L203.392 109.889L201.848 110.363L200.705 109.695L207.461 107.817L208.758 108.579ZM204.548 109.528L205.824 110.263L207.08 108.88L207.328 108.632C206.96 108.759 205.991 109.053 204.528 109.508"
            fill="white" />
        <path opacity="0.7"
            d="M204.033 105.792C204.489 106.04 204.873 106.402 205.149 106.841L203.953 107.142C203.851 106.981 203.74 106.827 203.619 106.681C203.487 106.53 203.331 106.401 203.158 106.3C202.741 106.068 202.262 105.972 201.788 106.026C201.228 106.083 200.689 106.266 200.211 106.561C199.101 107.229 198.968 107.77 199.803 108.251C200.29 108.507 200.806 108.705 201.34 108.839L200.458 109.347C199.885 109.205 199.335 108.98 198.827 108.679C198.099 108.258 197.765 107.81 197.812 107.343C197.858 106.875 198.306 106.387 199.148 105.912C199.66 105.615 200.218 105.405 200.799 105.291C201.359 105.173 201.936 105.155 202.503 105.237C203.043 105.327 203.561 105.515 204.033 105.792V105.792Z"
            fill="white" />
        <path opacity="0.7"
            d="M199.242 103.112L198.366 103.62L197.01 102.838L192.92 105.217L191.857 104.603L195.947 102.224L194.591 101.442L195.466 100.927L199.242 103.112Z"
            fill="white" />
        <path opacity="0.7" d="M194.698 100.486L189.726 103.373L188.67 102.758L193.635 99.8713L194.698 100.486Z"
            fill="white" />
        <path opacity="0.7"
            d="M191.283 99.2565C191.283 99.7643 190.935 100.245 190.167 100.693C189.384 101.154 188.488 101.385 187.581 101.362C186.637 101.33 185.717 101.059 184.907 100.573L183.497 99.7577L188.449 96.8975L190.02 97.8063C190.835 98.234 191.263 98.7486 191.283 99.2565ZM185.87 100.139C186.35 100.428 186.903 100.575 187.463 100.563C188.024 100.552 188.57 100.381 189.037 100.072C190.107 99.4503 190.16 98.8689 189.211 98.3209L188.65 97.9934L185.415 99.8713L185.87 100.139"
            fill="white" />
        <path opacity="0.7"
            d="M187.407 96.276L186.545 96.7772L184.72 95.728L183.631 96.3628L185.322 97.3385L184.46 97.8397L182.769 96.864L181.486 97.6058L183.31 98.655L182.435 99.1629L179.555 97.4989L184.527 94.612L187.407 96.276Z"
            fill="white" />
        <path opacity="0.7"
            d="M179.622 95.033C179.261 96.1156 179.027 96.8173 178.953 97.138L177.777 96.4698L178.492 94.6721L177.924 94.3513L176.02 95.454L174.957 94.8459L179.929 91.9589L181.386 92.8009C182.067 93.1885 182.448 93.5494 182.529 93.8835C182.609 94.211 182.395 94.5518 181.9 94.8124C181.585 94.9934 181.234 95.1028 180.871 95.1332C180.452 95.1645 180.03 95.1307 179.622 95.033ZM180.009 94.3647C180.277 94.3932 180.546 94.3346 180.778 94.1976C181.012 94.064 181.092 93.917 181.025 93.7633C180.877 93.5344 180.666 93.3533 180.417 93.242L180.096 93.0549L178.76 93.8368L179.1 94.0372C179.378 94.2071 179.687 94.3185 180.009 94.3647"
            fill="white" />
        <path opacity="0.7"
            d="M177.637 90.5489C178.09 90.799 178.471 91.16 178.746 91.5981L177.55 91.8988C177.448 91.7382 177.337 91.5842 177.216 91.4377C177.088 91.2851 176.934 91.1562 176.761 91.0568C176.342 90.8254 175.861 90.7297 175.385 90.7828C174.826 90.8438 174.288 91.0262 173.808 91.3174C172.698 91.9857 172.565 92.527 173.407 93.0081C173.891 93.2652 174.405 93.4627 174.937 93.5962L174.055 94.1041C173.483 93.9632 172.936 93.738 172.431 93.4358C171.703 93.0148 171.362 92.5671 171.409 92.0993C171.455 91.6315 171.903 91.1436 172.745 90.6692C173.255 90.3727 173.811 90.1627 174.389 90.0477C174.954 89.93 175.535 89.9119 176.107 89.9942C176.646 90.0845 177.165 90.2724 177.637 90.5489V90.5489Z"
            fill="white" />
        <path opacity="0.7"
            d="M72.573 64.5063C72.3458 65.1211 71.6241 65.7827 70.3945 66.5111C69.3471 67.1672 68.1794 67.6079 66.9597 67.8076C66.0007 67.9541 65.0204 67.7703 64.1797 67.2863C63.3845 66.8319 63.0971 66.2973 63.3243 65.6891C63.5515 65.081 64.2866 64.4061 65.5162 63.6843C66.5653 63.0138 67.7376 62.5594 68.9644 62.3478C69.9161 62.2028 70.8889 62.3841 71.7244 62.8623C72.5196 63.3502 72.8003 63.8915 72.573 64.5063ZM66.826 67.1326C67.7707 66.8986 68.6728 66.5175 69.4991 66.0032C70.2575 65.6392 70.921 65.1039 71.437 64.4395C71.6776 64.0118 71.5172 63.6309 70.9559 63.3101C70.3686 62.9889 69.6848 62.8916 69.0313 63.0361C68.084 63.2655 67.1809 63.6493 66.3582 64.1722C65.5946 64.5369 64.9265 65.0746 64.4069 65.7426C64.173 66.1703 64.3334 66.5445 64.8881 66.8586C65.4828 67.1863 66.1774 67.2839 66.8394 67.1326"
            fill="white" />
        <path opacity="0.7"
            d="M86.7668 71.7103L79.416 75.9739L78.6007 75.4994L83.8198 72.4654C84.2609 72.2115 84.6819 71.9776 85.0962 71.7971H84.6351L82.4633 71.6702L82.5902 71.0821L86.0384 71.336L86.7668 71.7103Z"
            fill="white" />
        <path opacity="0.7" d="M72.8604 76.5486L70.8556 77.7113L52.8259 67.3064L54.8307 66.1436L72.8604 76.5486Z"
            fill="white" />
        <path opacity="0.7"
            d="M79.8236 68.6964C79.5964 69.3112 78.868 69.9661 77.6451 70.7012C76.5976 71.3572 75.4299 71.7979 74.2102 71.9976C73.2499 72.143 72.2687 71.9618 71.4236 71.483C70.635 71.0219 70.3477 70.4873 70.5682 69.8792C70.7887 69.2711 71.5372 68.6028 72.7668 67.8744C73.8158 67.2039 74.9881 66.7495 76.215 66.5378C77.1652 66.398 78.1349 66.5816 78.9682 67.0591C79.7768 67.5402 80.0575 68.0815 79.8236 68.6964ZM74.09 71.316C75.0372 71.0898 75.9405 70.7081 76.763 70.1866C77.5243 69.8271 78.1887 69.291 78.7009 68.6228C78.9348 68.1952 78.7811 67.8209 78.2198 67.4935C77.6301 67.1724 76.9443 67.0751 76.2885 67.2195C75.3411 67.4484 74.4379 67.8323 73.6155 68.3555C72.8507 68.7184 72.1822 69.2564 71.6642 69.926C71.4303 70.3537 71.5907 70.7279 72.1386 71.042C72.7326 71.3721 73.428 71.4698 74.09 71.316"
            fill="white" />
        <path opacity="0.7"
            d="M98.0404 78.2192L90.6895 82.4828L89.8743 82.0084L95.1001 78.9744C95.5344 78.7204 95.9554 78.4932 96.3764 78.3061H95.9153L93.7435 78.1791L93.8705 77.5911L97.3187 77.8517L98.0404 78.2192Z"
            fill="white" />
        <path opacity="0.7"
            d="M104.609 81.8947C105.278 82.2957 105.672 82.71 105.712 83.1444C105.752 83.5788 105.472 83.9597 104.877 84.3072C104.326 84.6046 103.726 84.7993 103.106 84.8819C102.047 85.0154 100.979 85.0668 99.9116 85.0356H96.724H96.6906L100.48 87.2275L99.7044 87.6753L94.8929 84.8685L95.6147 84.4542H99.4973C100.68 84.4542 101.502 84.4542 101.936 84.3941C102.329 84.3611 102.717 84.2963 103.099 84.2003C103.423 84.1244 103.734 84.0005 104.021 83.8327C104.416 83.6055 104.603 83.3582 104.596 83.0843C104.589 82.8103 104.369 82.5563 103.928 82.3091C103.608 82.1283 103.267 81.9891 102.912 81.8947C102.432 81.7805 101.942 81.7112 101.449 81.6876L101.569 81.0995C102.63 81.1243 103.672 81.3966 104.609 81.8947Z"
            fill="white" />
        <path opacity="0.7"
            d="M164.145 118.002C163.752 118.487 163.265 118.89 162.715 119.184C159.823 120.855 157.264 121.044 155.036 119.752C154.736 119.59 154.458 119.39 154.208 119.158L154.929 118.737C155.155 118.981 155.419 119.186 155.711 119.345C156.487 119.805 157.384 120.021 158.284 119.966C159.326 119.877 160.335 119.558 161.238 119.031L161.178 118.997C160.732 119.046 160.281 119.028 159.841 118.944C159.403 118.85 158.981 118.69 158.591 118.469C157.923 118.095 157.609 117.681 157.616 117.233C157.622 116.785 157.97 116.358 158.665 115.957C159.409 115.522 160.255 115.292 161.117 115.288C161.938 115.265 162.75 115.469 163.463 115.876C163.886 116.079 164.221 116.428 164.405 116.859C164.455 117.056 164.458 117.263 164.412 117.461C164.367 117.66 164.275 117.845 164.145 118.002V118.002ZM161.565 118.616C161.877 118.589 162.179 118.498 162.454 118.349C162.761 118.193 163.025 117.963 163.222 117.681C163.299 117.575 163.349 117.453 163.37 117.324C163.391 117.195 163.381 117.063 163.343 116.939C163.24 116.647 163.027 116.406 162.748 116.271C162.272 115.997 161.726 115.867 161.178 115.896C160.582 115.93 160.004 116.109 159.494 116.418C159.012 116.698 158.758 116.986 158.725 117.286C158.692 117.587 158.926 117.881 159.393 118.162C159.711 118.348 160.06 118.477 160.422 118.543C160.789 118.619 161.166 118.639 161.538 118.603"
            fill="white" />
        <path opacity="0.7"
            d="M149.864 113.177C149.82 113.358 149.738 113.527 149.622 113.674C149.507 113.82 149.362 113.94 149.196 114.025C148.555 114.384 147.824 114.549 147.091 114.5C146.279 114.455 145.49 114.214 144.792 113.798C144.01 113.344 143.569 112.896 143.455 112.462C143.342 112.027 143.649 111.613 144.277 111.245C145.113 110.757 146.282 110.677 147.786 110.998C147.689 110.839 147.625 110.663 147.598 110.48C147.57 110.296 147.58 110.109 147.625 109.929C147.765 109.6 148.016 109.33 148.334 109.167C148.901 108.851 149.551 108.714 150.198 108.773C150.929 108.833 151.636 109.062 152.263 109.441C152.931 109.829 153.312 110.223 153.392 110.63C153.473 111.038 153.245 111.406 152.724 111.726C152.312 111.95 151.856 112.078 151.388 112.101C150.753 112.137 150.117 112.088 149.496 111.954C149.756 112.307 149.886 112.739 149.864 113.177ZM146.937 113.845C147.418 113.877 147.897 113.765 148.314 113.524C148.455 113.462 148.575 113.36 148.659 113.23C148.743 113.101 148.788 112.95 148.788 112.796C148.696 112.329 148.462 111.902 148.12 111.573C147.532 111.425 146.928 111.353 146.322 111.359C145.879 111.368 145.445 111.488 145.059 111.706C144.658 111.94 144.484 112.201 144.545 112.495C144.605 112.789 144.879 113.076 145.387 113.37C145.85 113.647 146.372 113.81 146.91 113.845H146.937ZM148.601 110.263C148.637 110.641 148.794 110.997 149.049 111.279C149.591 111.427 150.151 111.499 150.713 111.493C151.101 111.486 151.482 111.385 151.822 111.198C152.163 111.005 152.303 110.777 152.256 110.53C152.21 110.283 151.976 110.016 151.588 109.775C151.194 109.54 150.75 109.402 150.292 109.374C149.887 109.346 149.483 109.436 149.129 109.635C149.002 109.694 148.892 109.783 148.806 109.893C148.72 110.003 148.661 110.132 148.634 110.27"
            fill="white" />
        <path opacity="0.7"
            d="M147.338 106.688L146.67 107.075L136.993 109.2L136.064 108.666L145.681 106.621L141.664 104.295L142.433 103.847L147.338 106.688Z"
            fill="white" />
        <path opacity="0.7"
            d="M136.185 104.135C136.185 104.589 135.817 105.01 135.136 105.405C134.402 105.836 133.568 106.066 132.716 106.073C131.892 106.094 131.078 105.886 130.364 105.471C129.602 105.037 129.275 104.516 129.395 103.928C129.516 103.34 130.063 102.752 131.099 102.157C132.338 101.391 133.734 100.916 135.182 100.767C136.429 100.672 137.674 100.961 138.751 101.595C139.043 101.747 139.313 101.938 139.553 102.163L138.838 102.584C138.616 102.35 138.359 102.152 138.076 101.996C137.306 101.546 136.421 101.33 135.53 101.375C134.474 101.467 133.452 101.791 132.536 102.324L132.596 102.357C133.5 102.23 134.421 102.411 135.209 102.872C135.877 103.266 136.205 103.68 136.185 104.135ZM132.616 105.471C133.222 105.434 133.808 105.243 134.32 104.917C134.808 104.636 135.062 104.342 135.095 104.041C135.129 103.741 134.902 103.44 134.427 103.166C134.11 102.984 133.764 102.855 133.405 102.785C133.039 102.716 132.666 102.7 132.295 102.738C131.98 102.763 131.673 102.851 131.393 102.999C131.092 103.161 130.832 103.389 130.632 103.667C130.555 103.772 130.502 103.894 130.479 104.023C130.456 104.151 130.463 104.283 130.498 104.409C130.604 104.689 130.815 104.917 131.086 105.044C131.557 105.32 132.098 105.452 132.643 105.425"
            fill="white" />
        <path opacity="0.7"
            d="M132.255 97.9734L131.487 98.4211L128.533 96.717L126.147 97.8865C126.586 98.0535 127.01 98.2546 127.417 98.4879C128.199 98.9357 128.62 99.4035 128.68 99.8779C128.74 100.352 128.44 100.793 127.778 101.181C127.016 101.62 126.144 101.833 125.265 101.796C124.323 101.765 123.403 101.496 122.592 101.014C121.967 100.726 121.44 100.261 121.075 99.6775L121.884 99.2097C121.999 99.484 122.177 99.7269 122.405 99.918C122.679 100.178 122.984 100.403 123.314 100.586C123.857 100.914 124.472 101.104 125.105 101.141C125.699 101.173 126.29 101.029 126.802 100.727C127.823 100.134 127.702 99.4658 126.441 98.7218C125.984 98.4651 125.508 98.2418 125.018 98.0536L124.858 97.6392L128.567 95.8148L132.255 97.9734Z"
            fill="white" />
        <path opacity="0.7"
            d="M115.903 94.2244L116.999 94.8592L116.244 95.3003L115.141 94.6654L113.457 95.6411L112.662 95.18L114.346 94.2043L110.757 92.126L111.486 91.705L119.939 90.8496L120.828 91.3575L115.903 94.2244ZM117.54 92.3465C118.015 92.0725 118.569 91.7651 119.204 91.431H119.164C118.683 91.5245 118.269 91.5914 117.914 91.6315L112.355 92.1928L115.101 93.7833L117.54 92.3666"
            fill="white" />
        <path opacity="0.7"
            d="M111.847 86.0714C112.568 86.4858 112.963 86.9068 113.03 87.3211C113.096 87.7354 112.849 88.1164 112.281 88.4438C111.814 88.7182 111.285 88.87 110.744 88.8849C110.155 88.9003 109.569 88.798 109.02 88.5841H108.98C109.501 88.9651 109.755 89.3326 109.735 89.6734C109.715 90.0142 109.474 90.3417 108.98 90.609C108.271 91.0149 107.454 91.1923 106.641 91.1169C105.695 91.0367 104.78 90.7394 103.968 90.2481C103.621 90.0514 103.291 89.828 102.979 89.5799C102.715 89.3784 102.489 89.1318 102.311 88.8515L103.106 88.3904C103.285 88.691 103.511 88.9616 103.774 89.1923C104.052 89.4475 104.357 89.6715 104.683 89.8605C105.959 90.5956 107.089 90.6758 108.084 90.1011C108.967 89.5866 108.713 88.9183 107.309 88.0963L106.581 87.6753L107.303 87.2543L108.038 87.682C108.566 88.0008 109.16 88.1951 109.775 88.25C110.316 88.31 110.863 88.2002 111.339 87.9359C111.693 87.7288 111.847 87.4949 111.807 87.2276C111.767 86.9602 111.526 86.713 111.138 86.4724C110.809 86.282 110.459 86.1295 110.096 86.018C109.617 85.8831 109.127 85.7892 108.632 85.7373L108.773 85.1626C109.317 85.2046 109.857 85.2986 110.383 85.4433C110.895 85.5918 111.386 85.8028 111.847 86.0714Z"
            fill="white" />
        <path opacity="0.7"
            d="M171.348 120.548L163.998 124.805L163.182 124.337L168.401 121.296C168.843 121.042 169.257 120.815 169.678 120.628H169.217L167.038 120.501L167.165 119.913L170.62 120.167L171.348 120.548Z"
            fill="white" />
        <path opacity="0.7"
            d="M185.85 128.914L178.499 133.178L177.677 132.703L182.903 129.67C183.344 129.416 183.758 129.182 184.179 129.001H183.772L181.593 128.874L181.72 128.286L185.175 128.54L185.85 128.914Z"
            fill="white" />
        <path opacity="0.7"
            d="M178.907 125.9C178.673 126.515 177.951 127.177 176.728 127.905C175.678 128.561 174.508 129.002 173.286 129.202C172.328 129.347 171.349 129.166 170.506 128.687C169.718 128.226 169.424 127.691 169.651 127.083C169.878 126.475 170.613 125.807 171.85 125.078C172.898 124.411 174.067 123.957 175.291 123.742C176.244 123.603 177.215 123.786 178.051 124.263C178.853 124.744 179.134 125.286 178.907 125.9ZM173.173 128.52C174.12 128.294 175.024 127.913 175.846 127.391C176.606 127.029 177.27 126.493 177.784 125.827C178.024 125.399 177.864 125.025 177.309 124.704C176.721 124.378 176.035 124.278 175.378 124.424C174.419 124.65 173.505 125.033 172.672 125.56C171.908 125.925 171.24 126.462 170.72 127.13C170.489 127.576 170.649 127.95 171.201 128.253C171.796 128.581 172.492 128.677 173.153 128.52"
            fill="white" />
        <path opacity="0.7"
            d="M41.6527 76.2411L37.73 78.52L37.0618 78.1524L39.5945 76.6822C39.8952 76.5084 40.1424 76.3748 40.3296 76.2812H40.0957L38.993 76.2144L39.0732 75.8001L41.1382 75.9404L41.6527 76.2411Z"
            fill="white" />
        <path opacity="0.7"
            d="M28.6082 83.9397C28.958 84.1249 29.2547 84.3963 29.4703 84.7282L28.7085 84.902C28.6284 84.7855 28.5413 84.6739 28.4479 84.5678C28.3353 84.4414 28.202 84.3352 28.0536 84.2537C27.67 84.0368 27.2296 83.9412 26.7906 83.9797C26.2942 84.0123 25.813 84.1636 25.3872 84.4208C24.9061 84.7015 24.6455 84.9688 24.6054 85.2361C24.5653 85.5034 24.7323 85.7373 25.1199 85.9578C25.2901 86.0584 25.469 86.1434 25.6545 86.2118C25.8416 86.2786 26.0488 86.3521 26.2693 86.4189L25.7214 86.7397C25.2925 86.6268 24.8811 86.4559 24.4984 86.2318C23.9171 85.8977 23.6431 85.5636 23.6832 85.1626C23.7233 84.7616 24.0641 84.4008 24.7123 84.0265C25.1153 83.7937 25.553 83.6268 26.0087 83.532C26.4508 83.4543 26.9031 83.4543 27.3452 83.532C27.7882 83.5869 28.2167 83.7252 28.6082 83.9397V83.9397Z"
            fill="white" />
        <path opacity="0.7"
            d="M32.7448 86.3855L30.2989 89.5465L29.6307 89.1522L30.2989 88.2901L28.7887 87.4214L27.3118 87.829L26.6436 87.4414L32.0765 85.9779L32.7448 86.3855ZM29.5304 87.1808L30.6798 87.8491L31.3481 87.0204C31.4171 86.9298 31.4907 86.8428 31.5686 86.7598L31.8092 86.5058C31.505 86.6203 31.195 86.7185 30.8803 86.7999L29.5037 87.1875"
            fill="white" />
        <path opacity="0.7"
            d="M35.117 90.2949L34.5022 91.9456L33.7671 91.5246L34.3819 90.0677L33.7137 89.7002L32.1499 90.609L31.4817 90.2348L35.4044 87.956L36.5204 88.6242C37.0283 88.9183 37.3089 89.1923 37.3691 89.4395C37.4292 89.6868 37.2555 89.9274 36.8746 90.1479C36.3294 90.4209 35.7 90.4736 35.117 90.2949V90.2949ZM35.5514 89.9274C35.7858 89.9388 36.0183 89.8807 36.2197 89.7603C36.4469 89.6333 36.5271 89.493 36.4803 89.3527C36.4335 89.2123 36.2598 89.0586 35.9657 88.8916L35.538 88.6443L34.2617 89.3928L34.7094 89.6467C34.9577 89.8032 35.2392 89.8993 35.5313 89.9274"
            fill="white" />
        <path opacity="0.7"
            d="M41.8866 92.2596C41.8866 92.6472 41.6059 93.0282 40.9978 93.3823C40.3919 93.7441 39.6987 93.9336 38.993 93.9303C38.2601 93.9119 37.5443 93.7047 36.9148 93.3289L35.8121 92.6606L39.7348 90.3885L40.9511 91.0567C41.5614 91.4577 41.8733 91.8587 41.8866 92.2596ZM37.4226 93.0148C37.8504 93.2857 38.3464 93.4295 38.8527 93.4295C39.3591 93.4295 39.855 93.2857 40.2828 93.0148C41.2184 92.4668 41.2518 91.9456 40.3697 91.431L39.8083 91.1102L36.9615 92.7608L37.4226 93.0282"
            fill="white" />
        <path opacity="0.7" d="M50.4136 89.5932L48.4088 90.756L30.3792 80.351L32.3906 79.1815L50.4136 89.5932Z"
            fill="white" />
        <path opacity="0.7"
            d="M56.635 84.8685L56.0737 85.1893L54.5768 84.3272L53.5209 84.8418L53.7882 84.9554C53.9102 85.0076 54.0285 85.0679 54.1424 85.1359C54.5367 85.3631 54.7505 85.6103 54.7706 85.8643C54.7906 86.1182 54.6303 86.3521 54.2694 86.5325C53.8525 86.7753 53.3748 86.8935 52.8928 86.8734C52.3692 86.8524 51.8592 86.7008 51.4092 86.4323C51.0764 86.2684 50.7929 86.0194 50.5873 85.7106L51.162 85.3764C51.2398 85.5273 51.3439 85.663 51.4694 85.7774C51.6107 85.9069 51.7653 86.0211 51.9305 86.1182C52.1855 86.274 52.4744 86.3657 52.7725 86.3855C53.0465 86.3987 53.3183 86.3313 53.5544 86.1917C54.0221 85.9177 53.9553 85.6103 53.3539 85.2628C53.2737 85.216 53.1534 85.1559 53.0197 85.0958L52.6322 84.9421L52.5119 84.6814L54.5835 83.659L56.635 84.8685Z"
            fill="white" />
        <path opacity="0.7"
            d="M51.7835 82.0284C52.151 82.2422 52.3448 82.4694 52.3782 82.6967C52.4117 82.9239 52.2646 83.1444 51.9439 83.3315C51.7578 83.4438 51.5546 83.525 51.3424 83.5721C51.085 83.6308 50.8237 83.671 50.5606 83.6924C50.2599 83.6924 49.8121 83.6924 49.2241 83.6924H47.8875L49.7587 84.775L49.1973 85.1024L46.5243 83.5521L47.0054 83.2781H49.0102C49.6183 83.2781 50.026 83.2781 50.2599 83.2781C50.4533 83.2635 50.6454 83.2344 50.8346 83.1912C50.9873 83.1555 51.1337 83.0969 51.2689 83.0174C51.4427 82.9172 51.5229 82.8036 51.5229 82.6833C51.5229 82.563 51.4226 82.4494 51.2288 82.3358C51.0647 82.2446 50.8895 82.1749 50.7076 82.1286C50.4455 82.0736 50.1797 82.0379 49.9124 82.0217L49.9926 81.5873C50.3394 81.5999 50.6841 81.647 51.0217 81.7277C51.2875 81.7948 51.5435 81.8959 51.7835 82.0284V82.0284Z"
            fill="white" />
        <path opacity="0.7" d="M49.3978 80.7119L44.0049 82.142L43.4102 81.7945L48.7963 80.3711L49.3978 80.7119Z"
            fill="white" />
        <path opacity="0.7"
            d="M45.0407 78.1324C45.4083 78.3462 45.6021 78.5734 45.6355 78.8006C45.6689 79.0278 45.5219 79.2551 45.2011 79.4689C45.0111 79.5732 44.8092 79.654 44.5997 79.7095C44.3427 79.769 44.0811 79.807 43.8178 79.8231C43.5104 79.8231 43.0627 79.8231 42.4813 79.8231H41.1448L43.0226 80.9057L42.4612 81.2265L39.7882 79.6828L40.2627 79.4021H42.2675C42.8689 79.4021 43.2832 79.4021 43.5104 79.4021C43.7064 79.3908 43.901 79.3617 44.0918 79.3152C44.242 79.2783 44.3861 79.2198 44.5195 79.1415C44.6932 79.0412 44.7801 78.9276 44.7734 78.8073C44.7667 78.687 44.6732 78.5734 44.4861 78.4665C44.3241 78.3708 44.1483 78.3009 43.9648 78.2593C43.7032 78.2015 43.4372 78.1657 43.1696 78.1524L43.2498 77.7113C43.5945 77.7234 43.937 77.7704 44.2722 77.8517C44.5387 77.9141 44.7967 78.0083 45.0407 78.1324V78.1324Z"
            fill="white" />
        <path opacity="0.7"
            d="M60.3038 102.912C60.3038 103.306 60.0232 103.68 59.4151 104.035C58.8105 104.4 58.1164 104.589 57.4103 104.583C56.6746 104.568 55.9557 104.361 55.3253 103.981L54.2294 103.346L58.1387 101.047L59.3616 101.716C59.9764 102.117 60.2972 102.491 60.3038 102.912ZM55.8466 103.667C56.2743 103.938 56.7703 104.082 57.2766 104.082C57.783 104.082 58.2789 103.938 58.7067 103.667C59.6512 103.124 59.6801 102.598 58.7936 102.09L58.2322 101.762L55.3921 103.42L55.8466 103.68"
            fill="white" />
        <path opacity="0.7"
            d="M55.058 99.2698L51.6899 101.228L53.3606 102.197L52.8059 102.518L50.4871 101.181L54.4097 98.9023L55.058 99.2698Z"
            fill="white" />
        <path opacity="0.7"
            d="M51.8971 97.9934C51.8971 98.3877 51.5362 98.7619 50.8947 99.1362C50.2869 99.4986 49.5972 99.7009 48.8899 99.7242C48.2266 99.747 47.5705 99.5801 46.9987 99.2431C46.404 98.8956 46.1233 98.5347 46.1501 98.1471C46.1768 97.7595 46.5243 97.3786 47.1725 96.9977C47.7797 96.6339 48.4698 96.4315 49.1773 96.4096C49.842 96.3901 50.4984 96.5617 51.0684 96.9041C51.6565 97.2449 51.9372 97.6058 51.8971 97.9934ZM48.8164 99.2097C49.3125 99.1619 49.7906 98.9995 50.2131 98.7352C50.6875 98.4612 50.9615 98.1939 51.0083 97.94C51.0551 97.686 50.9081 97.4387 50.5205 97.2182C50.1422 96.9996 49.7062 96.9017 49.2708 96.9375C48.7778 96.9803 48.3017 97.1383 47.8809 97.3987C47.3997 97.6793 47.1324 97.9466 47.0789 98.2073C47.0255 98.4679 47.1859 98.7018 47.5735 98.929C47.9495 99.1471 48.3832 99.245 48.8164 99.2097"
            fill="white" />
        <path opacity="0.7"
            d="M47.5869 94.9595L43.6709 97.2383L43.016 96.864L44.7869 95.8349L42.9692 94.7857L41.205 95.8148L40.5568 95.4473L44.4795 93.1685L45.121 93.536L43.5172 94.4716L45.3348 95.5208L46.9387 94.5852L47.5869 94.9595Z"
            fill="white" />
        <path opacity="0.7"
            d="M90.5694 119.772L90.0214 120.093L88.4376 119.171L87.3684 119.792L88.8586 120.655L88.324 120.962L86.8338 120.107L85.5975 120.822L87.188 121.737L86.6467 122.051L84.4147 120.761L88.3307 118.489L90.5694 119.772Z"
            fill="white" />
        <path opacity="0.7"
            d="M86.5798 117.474L82.6571 119.752L82.0423 119.391L83.9803 118.269L84.7554 117.834C85.0762 117.661 85.27 117.554 85.3502 117.52L80.8595 118.723L80.2848 118.396L82.4165 115.83C81.971 116.128 81.5255 116.402 81.08 116.652L79.1755 117.761L78.5874 117.42L82.5101 115.148L83.4122 115.669L81.4075 118.115L85.671 116.946L86.5798 117.474Z"
            fill="white" />
        <path opacity="0.7"
            d="M79.817 113.557L77.3578 116.692L76.6895 116.297L77.3578 115.435L75.8475 114.567L74.3774 114.981L73.7091 114.587L79.1153 113.15L79.817 113.557ZM76.6094 114.353L77.7588 115.021L78.427 114.186C78.4956 114.095 78.5693 114.008 78.6476 113.925L78.8881 113.671C78.6208 113.771 78.3067 113.872 77.9526 113.965L76.616 114.353"
            fill="white" />
        <path opacity="0.7"
            d="M76.3888 111.599L72.4728 113.878L71.6842 113.424L72.8604 110.483L72.7 110.584C72.3926 110.798 72.0986 110.985 71.8312 111.138L69.8265 112.328L69.2384 111.987L73.1544 109.708L73.943 110.163L72.7668 113.083L73.2012 112.809L73.7826 112.448L75.8408 111.259L76.3888 111.599Z"
            fill="white" />
        <path opacity="0.7"
            d="M66.3582 108.332L65.7434 109.982L65.0083 109.561L65.6298 108.111L64.9615 107.737L63.3978 108.646L62.8164 108.258L66.7324 105.979L67.8484 106.648C68.3563 106.942 68.6369 107.216 68.6971 107.463C68.7572 107.71 68.5835 107.951 68.2026 108.171C67.9216 108.32 67.6135 108.411 67.2967 108.439C66.9798 108.466 66.6607 108.43 66.3582 108.332V108.332ZM66.7925 107.971C67.0276 107.98 67.2601 107.92 67.4608 107.797C67.688 107.67 67.7749 107.536 67.7281 107.396C67.6083 107.193 67.4285 107.032 67.2136 106.935L66.7792 106.681L65.5028 107.429L65.9505 107.69C66.1988 107.847 66.4803 107.943 66.7725 107.971"
            fill="white" />
        <path opacity="0.7"
            d="M65.1287 105.09L64.5874 105.405L62.9969 104.489L61.9277 105.104L63.4179 105.966L62.89 106.28L61.3998 105.418L60.1635 106.133L61.754 107.049L61.206 107.369L58.974 106.08L62.8967 103.801L65.1287 105.09Z"
            fill="white" />
    </g>
    <path
        d="M181.098 82.7234L200.117 93.5026L219.102 104.342L238.061 115.228L240.433 116.565C240.874 116.819 241.253 117.168 241.542 117.587C241.695 117.812 241.802 118.064 241.857 118.33C241.912 118.596 241.914 118.871 241.863 119.138C241.623 120.254 240.607 120.848 239.858 121.263L237.5 122.639L228.057 128.146L190.213 150.045L171.262 160.938L152.27 171.771L171.074 160.664L189.926 149.591L227.683 127.538L237.139 122.058L239.504 120.721C239.89 120.526 240.253 120.289 240.587 120.013C240.883 119.766 241.094 119.432 241.188 119.057C241.219 118.67 241.129 118.283 240.93 117.949C240.731 117.615 240.434 117.351 240.079 117.193L237.72 115.823L218.815 104.85L199.937 93.8301L181.098 82.7234Z"
        fill="white" />
</svg>