<svg width="21" height="15" viewBox="0 0 21 15" fill="none" xmlns="http://www.w3.org/2000/svg">
<path d="M18.7031 0.360596H2.29688C1.03039 0.360596 0 1.37967 0 2.63223V12.3678C0 13.6204 1.03039 14.6394 2.29688 14.6394H18.7031C19.9696 14.6394 21 13.6204 21 12.3678V2.63223C21 1.37967 19.9696 0.360596 18.7031 0.360596ZM2.29688 1.65867H18.7031C19.2459 1.65867 19.6875 2.09543 19.6875 2.63223V3.93031H1.3125V2.63223C1.3125 2.09543 1.75412 1.65867 2.29688 1.65867ZM18.7031 13.3414H2.29688C1.75412 13.3414 1.3125 12.9046 1.3125 12.3678V5.22838H19.6875V12.3678C19.6875 12.9046 19.2459 13.3414 18.7031 13.3414Z" fill="black"/>
</svg>
