<svg width="19" height="17" viewBox="0 0 19 17" fill="none" xmlns="http://www.w3.org/2000/svg">
<path d="M14.9176 1.30598H14.2592V0.664062C14.2592 0.297301 13.9507 0 13.57 0C13.1894 0 12.8809 0.297301 12.8809 0.664062V1.30598H6.11912V0.664062C6.11912 0.297301 5.81058 0 5.42995 0C5.04932 0 4.74077 0.297301 4.74077 0.664062V1.30598H4.08244C2.20337 1.30598 0.674644 2.779 0.674644 4.58957V13.7164C0.674644 15.527 2.20337 17 4.08244 17H14.9176C16.7966 17 18.3254 15.527 18.3254 13.7164V4.58957C18.3254 2.779 16.7966 1.30598 14.9176 1.30598ZM4.08244 2.6341H4.74077V3.92903C4.74077 4.29579 5.04932 4.59309 5.42995 4.59309C5.81058 4.59309 6.11912 4.29579 6.11912 3.92903V2.6341H12.8809V3.92903C12.8809 4.29579 13.1894 4.59309 13.5701 4.59309C13.9507 4.59309 14.2592 4.29579 14.2592 3.92903V2.6341H14.9176C16.0366 2.6341 16.947 3.51133 16.947 4.58957V5.22395H2.05299V4.58957C2.05299 3.51133 2.96339 2.6341 4.08244 2.6341ZM14.9176 15.6719H4.08244C2.96339 15.6719 2.05299 14.7946 2.05299 13.7164V6.55207H16.947V13.7164C16.947 14.7946 16.0366 15.6719 14.9176 15.6719ZM6.79682 9.16406C6.79682 9.53082 6.48828 9.82812 6.10765 9.82812H4.75228C4.37165 9.82812 4.06311 9.53082 4.06311 9.16406C4.06311 8.7973 4.37165 8.5 4.75228 8.5H6.10765C6.48825 8.5 6.79682 8.7973 6.79682 9.16406ZM14.9369 9.16406C14.9369 9.53082 14.6284 9.82812 14.2478 9.82812H12.8924C12.5118 9.82812 12.2032 9.53082 12.2032 9.16406C12.2032 8.7973 12.5118 8.5 12.8924 8.5H14.2478C14.6284 8.5 14.9369 8.7973 14.9369 9.16406ZM10.863 9.16406C10.863 9.53082 10.5544 9.82812 10.1738 9.82812H8.81841C8.43778 9.82812 8.12924 9.53082 8.12924 9.16406C8.12924 8.7973 8.43778 8.5 8.81841 8.5H10.1738C10.5544 8.5 10.863 8.7973 10.863 9.16406ZM6.79682 13.082C6.79682 13.4488 6.48828 13.7461 6.10765 13.7461H4.75228C4.37165 13.7461 4.06311 13.4488 4.06311 13.082C4.06311 12.7153 4.37165 12.418 4.75228 12.418H6.10765C6.48825 12.418 6.79682 12.7153 6.79682 13.082ZM14.9369 13.082C14.9369 13.4488 14.6284 13.7461 14.2478 13.7461H12.8924C12.5118 13.7461 12.2032 13.4488 12.2032 13.082C12.2032 12.7153 12.5118 12.418 12.8924 12.418H14.2478C14.6284 12.418 14.9369 12.7153 14.9369 13.082ZM10.863 13.082C10.863 13.4488 10.5544 13.7461 10.1738 13.7461H8.81841C8.43778 13.7461 8.12924 13.4488 8.12924 13.082C8.12924 12.7153 8.43778 12.418 8.81841 12.418H10.1738C10.5544 12.418 10.863 12.7153 10.863 13.082Z" fill="black"/>
</svg>
