<svg width="17" height="17" viewBox="0 0 17 17" fill="none" xmlns="http://www.w3.org/2000/svg">
<path d="M14.195 17H2.805C1.275 17 0 15.708 0 14.161V7.956C0 7.174 0.34 6.409 0.935 5.882L6.63 0.714C7.735 -0.238 9.265 -0.238 10.37 0.714L16.065 5.882C16.66 6.392 17 7.174 17 7.956V14.161C16.915 15.793 15.725 17 14.195 17ZM8.5 1.751C8.245 1.751 7.99 1.836 7.735 2.006L2.04 7.174C1.785 7.344 1.7 7.684 1.7 8.041V14.246C1.7 14.841 2.21 15.368 2.805 15.368H14.11C14.705 15.368 15.215 14.858 15.215 14.246V8.041C15.215 7.701 15.045 7.446 14.875 7.174L9.18 2.006C9.01 1.836 8.755 1.751 8.5 1.751Z" fill="#5BCF8C"/>
</svg>
