<svg width="18" height="18" viewBox="0 0 18 18" fill="none" xmlns="http://www.w3.org/2000/svg">
<path d="M14.5927 8.79508C16.4375 7.13663 16.5886 4.29671 14.9301 2.45192C13.4091 0.759944 10.8631 0.472505 9.00311 1.7828C6.97548 0.351819 4.17176 0.835504 2.74079 2.86309C1.42775 4.72359 1.71402 7.27219 3.40708 8.79504C1.30341 9.90396 -0.00955456 12.0902 -2.47658e-05 14.4682V16.3968C-2.47658e-05 16.7518 0.28779 17.0396 0.642841 17.0396H17.357C17.7121 17.0396 17.9999 16.7518 17.9999 16.3968V14.4682C18.0094 12.0902 16.6964 9.90396 14.5927 8.79508ZM11.5713 2.25401C13.344 2.25206 14.7826 3.68752 14.7846 5.46021C14.786 6.72447 14.0452 7.87178 12.8924 8.39068C12.8429 8.41317 12.7934 8.43374 12.7432 8.45498C12.5846 8.51898 12.4209 8.5699 12.254 8.60735C12.2219 8.61443 12.1897 8.61827 12.1569 8.62471C11.9704 8.66046 11.7811 8.67959 11.5912 8.68193C11.5057 8.68193 11.4196 8.67549 11.3341 8.6678C11.3019 8.6678 11.2698 8.6678 11.2376 8.66136C10.8723 8.61834 10.5168 8.51359 10.1866 8.35151C10.1744 8.34571 10.1602 8.34635 10.148 8.34123C10.0837 8.31038 10.0194 8.28337 9.96222 8.24864C9.96738 8.2422 9.97059 8.23516 9.97571 8.22871C10.2705 7.84993 10.5029 7.42655 10.6642 6.97451L10.6841 6.92049C10.7575 6.70459 10.8144 6.48348 10.8545 6.25898C10.8603 6.22621 10.8648 6.19468 10.8699 6.15935C10.9071 5.93083 10.9267 5.69981 10.9284 5.46827C10.9266 5.23718 10.907 5.00658 10.8699 4.77847C10.8648 4.74506 10.8603 4.71417 10.8545 4.67884C10.8144 4.45438 10.7575 4.23324 10.6841 4.01733L10.6642 3.96332C10.5029 3.51127 10.2705 3.08789 9.97571 2.70911C9.97055 2.70267 9.96735 2.69562 9.96222 2.68918C10.4506 2.40427 11.0059 2.25405 11.5713 2.25401ZM3.21423 5.46831C3.20967 3.69772 4.64129 2.25868 6.41187 2.25413C7.24183 2.25198 8.04029 2.57181 8.63928 3.14631C8.67657 3.18232 8.71322 3.2183 8.74919 3.25559C8.85959 3.37126 8.96141 3.49481 9.05392 3.62521C9.08221 3.66507 9.10793 3.70752 9.13426 3.74865C9.2241 3.88693 9.30297 4.03202 9.37017 4.18258C9.38626 4.21923 9.39846 4.25652 9.41259 4.29313C9.48035 4.45966 9.53368 4.63172 9.57203 4.8074C9.57655 4.82669 9.57783 4.84597 9.58167 4.8659C9.66311 5.26506 9.66311 5.67657 9.58167 6.07573C9.57783 6.09566 9.57651 6.11494 9.57203 6.13423C9.53372 6.30991 9.48039 6.48197 9.41259 6.6485C9.39846 6.68515 9.38622 6.72244 9.37017 6.75905C9.3029 6.90938 9.22402 7.05425 9.13426 7.19234C9.1079 7.23347 9.08221 7.27592 9.05392 7.31577C8.96145 7.44622 8.85959 7.56973 8.74919 7.6854C8.71318 7.72269 8.67653 7.7587 8.63928 7.79467C8.379 8.04271 8.0789 8.24525 7.7515 8.39381C7.69945 8.41758 7.64671 8.43946 7.59337 8.45811C7.43841 8.51962 7.27897 8.56904 7.11639 8.60595C7.0759 8.61495 7.03409 8.62008 6.99296 8.62716C6.81841 8.65967 6.64141 8.67748 6.46389 8.68053H6.39319C6.21566 8.67752 6.03866 8.65967 5.86411 8.62716C5.82298 8.62008 5.78117 8.61495 5.74068 8.60595C5.57811 8.56904 5.41862 8.51962 5.2637 8.45811C5.21032 8.4369 5.15763 8.41505 5.10557 8.39381C3.95544 7.87453 3.2157 6.7302 3.21423 5.46831ZM11.5713 15.7539H1.28567V14.4683C1.27625 12.2898 2.64877 10.3449 4.70434 9.62372C5.80784 10.0831 7.04908 10.0831 8.15262 9.62372C8.36725 9.70214 8.57641 9.79469 8.77876 9.9008C8.91248 9.96958 9.03591 10.048 9.16447 10.1271C9.24805 10.1791 9.33288 10.2299 9.41326 10.2872C9.53734 10.3752 9.65433 10.471 9.76941 10.5694C9.84335 10.6337 9.91661 10.6979 9.98603 10.7622C10.0921 10.8625 10.1917 10.9686 10.2875 11.0772C10.3563 11.1556 10.4232 11.2354 10.4868 11.3177C10.571 11.4256 10.6514 11.5362 10.726 11.65C10.7903 11.7464 10.8475 11.8467 10.904 11.947C10.9683 12.0576 11.0275 12.1681 11.0814 12.2832C11.1354 12.3983 11.183 12.5243 11.2293 12.6471C11.2698 12.7538 11.3129 12.8599 11.3463 12.9685C11.3913 13.1176 11.4228 13.2719 11.4543 13.4262C11.4735 13.5175 11.4986 13.6068 11.5128 13.6994C11.5508 13.9539 11.5704 14.2109 11.5713 14.4683V15.7539H11.5713ZM16.7141 15.7539H12.857V14.4683C12.857 14.267 12.8455 14.0677 12.8275 13.8704C12.8223 13.8125 12.8133 13.7553 12.8069 13.6975C12.7895 13.5554 12.7696 13.4146 12.7426 13.2751C12.731 13.2156 12.7188 13.1557 12.7059 13.0957C12.6751 12.9526 12.6393 12.8107 12.5986 12.6702C12.5851 12.6239 12.5729 12.5769 12.5587 12.5313C12.3787 11.9559 12.1179 11.409 11.7841 10.9069L11.759 10.8702C11.6485 10.7061 11.5304 10.5473 11.4048 10.3939L11.4003 10.3881C11.2718 10.2287 11.1322 10.0737 10.9857 9.92713C10.994 9.92713 11.003 9.92713 11.012 9.92713C11.1935 9.95097 11.3761 9.96386 11.5591 9.9657H11.5945C11.7638 9.96423 11.9329 9.95327 12.1011 9.93293C12.1538 9.92649 12.2059 9.91685 12.2586 9.90848C12.3953 9.8875 12.5303 9.86027 12.6636 9.82686C12.7015 9.81722 12.7401 9.80821 12.7786 9.79729C12.9535 9.74972 13.1253 9.69129 13.2929 9.62244C15.35 10.3429 16.7237 12.2887 16.7142 14.4683V15.7539H16.7141Z" fill="black"/>
</svg>
